<?xml version="1.0" standalone="no"?>
<!DOCTYPE svg PUBLIC "-//W3C//DTD SVG 1.1//EN" "http://www.w3.org/Graphics/SVG/1.1/DTD/svg11.dtd" >
<svg xmlns="http://www.w3.org/2000/svg">
<metadata>Generated by IcoMoon</metadata>
<defs>
<font id="flexmonster-icons" horiz-adv-x="1024">
<font-face units-per-em="1024" ascent="960" descent="-64" />
<missing-glyph horiz-adv-x="1024" />
<glyph unicode="&#x20;" horiz-adv-x="512" d="" />
<glyph unicode="&#xe900;" glyph-name="act_add" d="M512 789.333c-188.513 0-341.333-152.82-341.333-341.333s152.82-341.333 341.333-341.333c188.513 0 341.333 152.82 341.333 341.333s-152.82 341.333-341.333 341.333zM682.667 411.477h-134.144v-134.144h-73.045v134.144h-134.144v73.045h134.144v134.144h73.045v-134.144h134.144z" />
<glyph unicode="&#xe901;" glyph-name="act_calc" d="M763.221 806.4h-502.443c-31.123-0.941-55.995-26.396-55.995-57.661 0-0.489 0.006-0.976 0.018-1.462l-0.001-598.627c-0.011-0.414-0.017-0.901-0.017-1.39 0-31.264 24.872-56.72 55.909-57.659l502.529-0.002c31.123 0.941 55.995 26.396 55.995 57.661 0 0.489-0.006 0.976-0.018 1.462l0.001 598.627c0.011 0.414 0.017 0.901 0.017 1.39 0 31.264-24.872 56.72-55.909 57.659zM387.755 189.611c0.003-0.106 0.004-0.231 0.004-0.356 0-8.621-6.801-15.654-15.33-16.027l-79.906-0.001c-8.563 0.374-15.364 7.407-15.364 16.028 0 0.125 0.001 0.25 0.004 0.374v82.584c-0.003 0.106-0.004 0.231-0.004 0.356 0 8.621 6.801 15.654 15.33 16.027l78.199 0.001c8.563-0.374 15.364-7.407 15.364-16.028 0-0.125-0.001-0.25-0.004-0.374zM387.755 372.565c0.003-0.106 0.004-0.231 0.004-0.356 0-8.621-6.801-15.654-15.33-16.027l-79.906-0.001c-8.563 0.374-15.364 7.407-15.364 16.028 0 0.125 0.001 0.25 0.004 0.374v82.584c-0.003 0.106-0.004 0.231-0.004 0.356 0 8.621 6.801 15.654 15.33 16.027l78.199 0.001c8.563-0.374 15.364-7.407 15.364-16.028 0-0.125-0.001-0.25-0.004-0.374zM568.32 189.611c0.003-0.106 0.004-0.231 0.004-0.356 0-8.621-6.801-15.654-15.33-16.027l-79.906-0.001c-8.563 0.374-15.364 7.407-15.364 16.028 0 0.125 0.001 0.25 0.004 0.374v82.584c-0.003 0.106-0.004 0.231-0.004 0.356 0 8.621 6.801 15.654 15.33 16.027l78.199 0.001c8.563-0.374 15.364-7.407 15.364-16.028 0-0.125-0.001-0.25-0.004-0.374zM568.32 372.565c0.003-0.106 0.004-0.231 0.004-0.356 0-8.621-6.801-15.654-15.33-16.027l-79.906-0.001c-8.563 0.374-15.364 7.407-15.364 16.028 0 0.125 0.001 0.25 0.004 0.374v82.584c-0.003 0.106-0.004 0.231-0.004 0.356 0 8.621 6.801 15.654 15.33 16.027l78.199 0.001c8.563-0.374 15.364-7.407 15.364-16.028 0-0.125-0.001-0.25-0.004-0.374zM748.885 189.611c0.003-0.106 0.004-0.231 0.004-0.356 0-8.621-6.801-15.654-15.33-16.027l-80.247-0.001c-8.563 0.374-15.364 7.407-15.364 16.028 0 0.125 0.001 0.25 0.004 0.374v82.584c-0.003 0.106-0.004 0.231-0.004 0.356 0 8.621 6.801 15.654 15.33 16.027l78.199 0.001c8.563-0.374 15.364-7.407 15.364-16.028 0-0.125-0.001-0.25-0.004-0.374zM748.885 372.565c0.003-0.106 0.004-0.231 0.004-0.356 0-8.621-6.801-15.654-15.33-16.027l-80.247-0.001c-8.563 0.374-15.364 7.407-15.364 16.028 0 0.125 0.001 0.25 0.004 0.374v82.584c-0.003 0.106-0.004 0.231-0.004 0.356 0 8.621 6.801 15.654 15.33 16.027l78.199 0.001c8.563-0.374 15.364-7.407 15.364-16.028 0-0.125-0.001-0.25-0.004-0.374zM748.885 570.539c0.003-0.106 0.004-0.231 0.004-0.356 0-8.621-6.801-15.654-15.33-16.027l-441.036-0.001c-8.563 0.374-15.364 7.407-15.364 16.028 0 0.125 0.001 0.25 0.004 0.374v147.779c-0.003 0.106-0.004 0.231-0.004 0.356 0 8.621 6.801 15.654 15.33 16.027l438.988 0.001c8.563-0.374 15.364-7.407 15.364-16.028 0-0.125-0.001-0.25-0.004-0.374z" />
<glyph unicode="&#xe902;" glyph-name="act_check" d="M685.686 625.231l62.622-62.228-292.234-292.234-180.382 179.988 62.622 62.622 118.154-118.154z" />
<glyph unicode="&#xe903;" glyph-name="act_close" d="M762.486 642.954l-55.532 55.532-194.954-194.954-194.954 194.954-55.532-55.532 194.954-194.954-193.772-194.166 55.138-55.138 194.166 193.772 194.954-194.954 55.532 55.532-194.954 194.954 194.954 194.954z" />
<glyph unicode="&#xe904;" glyph-name="act_close_small" d="M693.248 592.896l-36.352 36.352-144.896-144.896-144.896 144.896-36.352-36.352 144.896-144.896-144.896-144.896 36.352-36.352 144.896 144.896 144.896-144.896 36.352 36.352-144.896 144.896 144.896 144.896z" />
<glyph unicode="&#xe905;" glyph-name="act_filter" d="M844.8 806.4h-665.6l256-358.4v-358.4l153.6 153.6v204.8z" />
<glyph unicode="&#xe906;" glyph-name="act_font" d="M415.744 259.584h192.171l34.133-118.784h143.019l-197.291 614.4h-151.893l-196.949-614.4h142.336zM512 588.971v0l63.488-217.429h-128.341z" />
<glyph unicode="&#xe907;" glyph-name="act_move" d="M307.2 627.2h409.6v-51.2h-409.6v51.2zM307.2 473.6h409.6v-51.2h-409.6v51.2zM307.2 320h409.6v-51.2h-409.6v51.2z" />
<glyph unicode="&#xe908;" glyph-name="act_roll_down" d="M512 294.4l-256 249.344 59.904 57.856 196.096-190.976 196.096 190.976 59.904-57.856z" />
<glyph unicode="&#xe909;" glyph-name="act_roll_up" d="M768 352.256l-59.904-57.856-196.096 190.976-196.096-190.976-59.904 57.856 256 249.344z" />
<glyph unicode="&#xe90a;" glyph-name="act_search" d="M647.089 366.868h-28.751l-10.634 10.634c35.681 39.692 57.503 92.468 57.503 150.34 0 0.315-0.001 0.631-0.002 0.946 0 129.155-104.74 233.896-233.944 233.896s-233.945-104.741-233.945-233.945c0-129.204 104.741-233.945 233.945-233.945 0.266-0.001 0.582-0.002 0.897-0.002 57.872 0 110.647 21.822 150.547 57.686l10.427-10.817v-28.751l179.988-179.988 53.957 53.957zM430.868 366.868c-89.399 0-161.871 72.472-161.871 161.871s72.472 161.871 161.871 161.871c89.399 0 161.871-72.472 161.871-161.871 0-0.117 0-0.256 0-0.394 0-89.181-72.296-161.477-161.477-161.477-0.139 0-0.277 0-0.416 0.001z" />
<glyph unicode="&#xe90b;" glyph-name="act_sigma" d="M256 684.308h512v-111.458h-90.978v32.689h-226.462l146.511-157.538-146.511-157.538h226.855v30.72h90.585v-109.489h-512l222.523 236.308z" />
<glyph unicode="&#xe90c;" glyph-name="act_table_settings" d="M158.208 325.12l67.072-112.64c6.119-9.974 16.963-16.526 29.338-16.526 3.788 0 7.433 0.614 10.84 1.748l-0.242-0.070 98.816 32.256c7.52-4.955 16.404-10.063 25.589-14.659l1.547-0.701 18.432-98.816c3.403-15.046 16.659-26.113 32.499-26.113 0.095 0 0.189 0 0.283 0.001h134.642c0.080-0.001 0.174-0.001 0.269-0.001 15.84 0 29.096 11.067 32.457 25.89l0.042 0.223 20.48 99.328c10.742 5.309 19.626 10.417 28.174 15.996l-1.038-0.636 98.816-32.256c3.165-1.064 6.81-1.678 10.598-1.678 12.375 0 23.219 6.552 29.253 16.377l0.085 0.149 67.072 112.64c2.846 4.665 4.531 10.308 4.531 16.345 0 9.904-4.536 18.749-11.643 24.57l-0.056 0.045-75.776 66.048c0 5.12 0 10.24 0 15.36s0 10.24 0 15.36l78.848 66.56c7.164 5.866 11.699 14.711 11.699 24.615 0 6.037-1.685 11.68-4.611 16.485l0.079-0.14-67.584 112.64c-6.165 9.733-16.877 16.101-29.076 16.101-3.885 0-7.62-0.646-11.102-1.836l0.241 0.072-98.816-32.256c-7.518 4.952-16.401 10.061-25.586 14.657l-1.55 0.703-18.432 99.328c-3.358 15.105-16.642 26.23-32.525 26.23-0.987 0-1.964-0.043-2.928-0.127l0.125 0.009h-134.144c-0.84 0.075-1.816 0.118-2.803 0.118-15.882 0-29.166-11.126-32.483-26.009l-0.041-0.222-20.48-99.328c-10.748-5.315-19.631-10.423-28.182-16l1.046 0.64-96.768 32.768c-3.241 1.119-6.975 1.765-10.86 1.765-12.199 0-22.911-6.368-28.993-15.96l-67.155-113.292c-2.846-4.665-4.531-10.308-4.531-16.345 0-9.904 4.536-18.749 11.643-24.57l0.056-0.045 78.336-66.56c0-5.12 0-10.24 0-15.36s0-10.24 0-15.36l-78.848-66.56c-6.964-5.862-11.359-14.585-11.359-24.333 0-6.153 1.75-11.897 4.781-16.761l-0.078 0.134zM512 578.56c70.322-2.276 126.464-59.83 126.464-130.496 0-72.106-58.454-130.56-130.56-130.56-72.084 0-130.523 58.417-130.56 130.492v0.004c1.144 72.358 60.070 130.576 132.592 130.576 0.726 0 1.45-0.006 2.173-0.017l-0.109 0.001z" />
<glyph unicode="&#xe90d;" glyph-name="act_table_sort" d="M614.4 422.4v358.4h-204.8v-358.4h-204.8l307.2-307.2 307.2 307.2h-204.8z" />
<glyph unicode="&#xe90e;" glyph-name="act_trash" d="M303.104 140.8c-0.001-0.073-0.001-0.16-0.001-0.247 0-18.851 15.282-34.133 34.133-34.133 1.444 0 2.867 0.090 4.264 0.264l341.167-0.017c0.818-0.070 1.77-0.109 2.731-0.109 18.851 0 34.133 15.282 34.133 34.133 0 0.038 0 0.077 0 0.115l24.576 483.663h-465.579zM589.824 504.32c0.182 7.777 6.529 14.011 14.332 14.011 0.241 0 0.481-0.006 0.72-0.018l23.86 0.001c0.106 0.003 0.231 0.004 0.357 0.004 7.867 0 14.289-6.19 14.66-13.966l0.001-276.172c-0.182-7.777-6.529-14.011-14.332-14.011-0.241 0-0.481 0.006-0.72 0.018l-23.86-0.001c-0.205-0.010-0.445-0.016-0.686-0.016-7.803 0-14.15 6.235-14.332 13.994zM485.035 504.32c0.182 7.777 6.529 14.011 14.332 14.011 0.241 0 0.481-0.006 0.72-0.018l23.86 0.001c0.205 0.010 0.445 0.016 0.686 0.016 7.803 0 14.15-6.235 14.332-13.994v-276.156c-0.182-7.777-6.529-14.011-14.332-14.011-0.241 0-0.481 0.006-0.72 0.018l-23.86-0.001c-0.205-0.010-0.445-0.016-0.686-0.016-7.803 0-14.15 6.235-14.332 13.994zM380.245 504.32c0.372 7.809 6.794 13.999 14.662 13.999 0.126 0 0.251-0.002 0.375-0.005h23.875c0.205 0.010 0.445 0.016 0.686 0.016 7.803 0 14.15-6.235 14.332-13.994v-276.156c-0.182-7.777-6.529-14.011-14.332-14.011-0.241 0-0.481 0.006-0.72 0.018l-23.86-0.001c-0.106-0.003-0.231-0.004-0.357-0.004-7.867 0-14.289 6.19-14.66 13.966zM761.856 755.2h-158.72v26.965c-0.183 4.001-3.472 7.176-7.502 7.176-0.123 0-0.245-0.003-0.366-0.009l-166.554 0.001c-0.104 0.005-0.226 0.008-0.349 0.008-4.030 0-7.319-3.175-7.501-7.16l-0.001-26.982h-158.72c-0.203 0.007-0.443 0.010-0.683 0.010-12.442 0-22.528-10.086-22.528-22.528 0-0.004 0-0.007 0-0.011v-68.266h546.133v68.267c0 0.003 0 0.007 0 0.010 0 12.442-10.086 22.528-22.528 22.528-0.24 0-0.479-0.004-0.717-0.011z" />
<glyph unicode="&#xe90f;" glyph-name="arrow_down" d="M853.333 704h-682.667l341.333-512 341.333 512z" />
<glyph unicode="&#xe910;" glyph-name="arrow_left" d="M768 106.667v682.667l-512-341.333 512-341.333z" />
<glyph unicode="&#xe911;" glyph-name="arrow_right" d="M256 789.333v-682.667l512 341.333-512 341.333z" />
<glyph unicode="&#xe912;" glyph-name="arrow_up" d="M512 704l-341.333-512h682.667l-341.333 512z" />
<glyph unicode="&#xe913;" glyph-name="calc_abs" d="M321.536 558.080h-46.848l-85.504-219.904h46.848l18.176 51.2h87.808l19.2-51.2h48.384zM267.776 425.216l29.696 81.664 30.208-81.664zM439.552 338.176h74.752q42.496 0 53.504 1.536c11.179 1.001 21.31 4.781 29.915 10.636 7.847 5.653 14.276 13.23 18.572 22.039 4.504 8.85 7.057 18.892 7.066 29.53 0.010 0.378 0.015 0.82 0.015 1.264 0 12.088-4.047 23.231-10.861 32.147-7.66 9.52-18.287 16.574-30.48 19.751 17.972 8.134 30.577 26.159 30.577 47.127 0 0.203-0.001 0.406-0.004 0.609 0.001 0.074 0.002 0.198 0.002 0.323 0 9.282-2.47 17.988-6.789 25.495-4.162 7.176-9.832 13.337-16.582 18.063-6.734 4.546-14.511 7.701-22.895 9.038-10.668 1.535-22.609 2.387-34.749 2.387-1.579 0-3.154-0.014-4.726-0.043l-87.316 0.003zM509.44 521.472q31.232 0 37.888 0c6.556-0.448 12.371-3.302 16.635-7.675 3.525-4.162 5.664-9.585 5.664-15.508 0-0.4-0.010-0.798-0.029-1.193 0.018-0.269 0.028-0.649 0.028-1.031 0-6.233-2.448-11.894-6.434-16.074-4.71-4.449-10.925-7.368-17.808-7.92q-6.504-0.007-32.36-0.007h-29.184v51.2zM519.68 433.92c2.42 0.139 5.25 0.218 8.099 0.218 11.094 0 21.909-1.198 32.321-3.472 4.701-1.653 9.436-5.146 12.774-9.724 3.109-4.567 4.932-10.108 4.932-16.075 0-0.316-0.005-0.63-0.015-0.944 0.026-0.386 0.040-0.891 0.040-1.4 0-6.569-2.334-12.594-6.219-17.288-4.086-4.475-9.654-7.613-15.932-8.637-7.26-0.91-15.478-1.417-23.814-1.417-2.395 0-4.779 0.042-7.154 0.125l-40.872-0.010v58.88zM682.752 353.536c15.809-12.115 35.865-19.414 57.626-19.414 2.243 0 4.468 0.078 6.672 0.23 0.591-0.039 1.637-0.052 2.685-0.052 15.76 0 30.837 2.924 44.718 8.26 11.692 5.031 21.872 13.892 28.686 25.036 6.781 10.691 10.713 23.381 10.713 36.99 0 12.371-3.25 23.984-8.943 34.030-5.817 9.143-14.048 16.717-23.797 21.767-14.084 6.771-30.088 12.247-46.808 15.785-16.697 2.738-30.397 7.848-42.649 15.137-3.493 2.797-6.077 7.6-6.119 13.009-0.001 0.054-0.001 0.109-0.001 0.164 0 5.567 2.821 10.476 7.112 13.374 7.525 4.54 16.543 7.204 26.183 7.204 1.798 0 3.575-0.093 5.325-0.274 0.762 0.095 1.906 0.139 3.060 0.139 9.275 0 17.891-2.818 25.039-7.645 6.894-6.31 11.492-15.313 12.124-25.391l44.293 1.94c0 0.023 0 0.051 0 0.079 0 19.246-8.495 36.508-21.94 48.24-15.37 11.565-34.68 18.481-55.606 18.481-2.35 0-4.679-0.087-6.986-0.259-0.52 0.041-1.494 0.053-2.471 0.053-14.576 0-28.491-2.833-41.224-7.979-10.635-4.389-19.97-12.076-26.518-21.796-6.137-8.972-9.759-19.775-9.863-31.418-0.002-0.198-0.003-0.4-0.003-0.603 0-17.476 7.818-33.127 20.147-43.645 14.472-10.765 31.765-18.419 50.556-21.721q28.372-7.017 36.308-9.833c6.249-1.852 11.595-5.129 15.867-9.467 2.876-3.439 4.62-7.902 4.62-12.773 0-0.191-0.003-0.382-0.008-0.572-0.085-8.64-4.26-16.315-10.684-21.171-8.012-5.739-17.927-9.147-28.637-9.147-1.297 0-2.583 0.050-3.855 0.148-0.601-0.055-1.502-0.080-2.409-0.080-11.255 0-21.602 3.884-29.776 10.385-8.482 8.169-14.273 19.26-15.75 31.675l-43.288-3.846c1.441-21.731 10.97-40.994 25.571-55.013z" />
<glyph unicode="&#xe914;" glyph-name="calc_and" d="M266.496 557.824l-85.76-219.648h47.104l18.176 51.2h86.784l19.2-51.2h48.384l-88.064 219.904zM259.84 424.96l29.696 81.664 30.208-81.664zM564.736 411.136l-90.112 146.688h-43.008v-219.904h41.216v143.616l88.576-143.616h44.544v219.904h-41.216v-146.688zM836.096 497.92c-4.605 13.834-11.785 25.719-21.044 35.64-8.739 9.277-19.891 16.29-32.452 20.035-11.397 2.797-23.884 4.325-36.728 4.325-1.941 0-3.874-0.035-5.798-0.104l-81.129 0.008v-219.904h83.456c1.285-0.044 2.795-0.069 4.31-0.069 12.491 0 24.584 1.707 36.057 4.901 11.227 3.329 21.709 9.423 30.333 17.481 10.481 10.577 18.573 23.625 23.315 38.185 4.44 13.676 6.889 28.625 6.889 44.145 0 1.192-0.014 2.38-0.043 3.565 0.036 1.045 0.055 2.482 0.055 3.923 0 17.085-2.64 33.553-7.534 49.019zM793.6 407.552c-2.027-8.311-6.050-15.492-11.539-21.268-4.905-4.345-10.948-7.56-17.623-9.141-7.014-1.385-14.758-2.146-22.68-2.146-1.125 0-2.246 0.015-3.363 0.046l-35.163-0.004v145.664h19.968c2.058 0.075 4.476 0.118 6.904 0.118 10.391 0 20.598-0.788 30.565-2.306 6.858-1.422 13.813-5.037 19.396-10.13 5.653-5.753 9.979-12.892 12.415-20.855 3.214-11.027 5.008-23.278 5.008-35.947 0-1.26-0.018-2.516-0.053-3.767 0.107-1.85 0.166-4.232 0.166-6.628 0-11.938-1.459-23.535-4.209-34.622z" />
<glyph unicode="&#xe915;" glyph-name="calc_assigne" d="M458.752 415.232h-179.2c-6.656 0-12.288-11.008-12.288-25.6s5.632-25.6 12.288-25.6h179.2c6.912 0 12.288 11.008 12.288 25.6s-5.376 25.6-12.288 25.6zM458.752 529.92h-179.2c-6.656 0-12.288-11.008-12.288-25.6s5.632-25.6 12.288-25.6h179.2c6.912 0 12.288 11.008 12.288 25.6s-5.376 25.6-12.288 25.6zM745.472 415.232h-179.2c-6.912 0-12.288-11.008-12.288-25.6s5.376-25.6 12.288-25.6h179.2c6.912 0 12.288 11.008 12.288 25.6s-5.376 25.6-12.288 25.6zM565.248 480.768h179.2c6.912 0 12.288 11.008 12.288 25.6s-5.632 25.6-12.288 25.6h-179.2c-6.912 0-12.288-11.008-12.288-25.6s5.376-25.6 12.288-25.6z" />
<glyph unicode="&#xe916;" glyph-name="calc_degree" d="M650.752 501.504c8.839 4.162 14.848 12.996 14.848 23.233 0 0.022 0 0.045 0 0.067-0.046 3.632-0.891 7.059-2.367 10.125l-138.945 155.504c-4.256 8.577-12.954 14.369-23.005 14.369-10.545 0-19.601-6.376-23.523-15.483l-117.824-155.814c-0.825-2.404-1.301-5.175-1.301-8.056 0-10.638 6.488-19.76 15.724-23.625 2.817-1.077 5.88-1.664 9.081-1.664 10.557 0 19.622 6.391 23.537 15.515l96.32 121.255 113.92-122.368c4.096-9.008 13.017-15.159 23.374-15.159 3.674 0 7.167 0.774 10.326 2.168z" />
<glyph unicode="&#xe917;" glyph-name="calc_divide" d="M691.2 468.48h-358.4c-0.976 0.163-2.101 0.256-3.248 0.256-11.452 0-20.736-9.284-20.736-20.736s9.284-20.736 20.736-20.736c1.147 0 2.272 0.093 3.368 0.272l358.28-0.016c0.976-0.163 2.101-0.256 3.248-0.256 11.452 0 20.736 9.284 20.736 20.736s-9.284 20.736-20.736 20.736c-1.147 0-2.272-0.093-3.368-0.272zM552.96 591.36c0-22.622-18.338-40.96-40.96-40.96s-40.96 18.338-40.96 40.96c0 22.622 18.338 40.96 40.96 40.96s40.96-18.338 40.96-40.96zM552.96 304.64c0-22.622-18.338-40.96-40.96-40.96s-40.96 18.338-40.96 40.96c0 22.622 18.338 40.96 40.96 40.96s40.96-18.338 40.96-40.96z" />
<glyph unicode="&#xe918;" glyph-name="calc_equal" d="M691.2 415.232h-358.4c-10.97-3.053-18.886-12.954-18.886-24.704s7.916-21.651 18.706-24.661l358.58-0.043c10.97 3.053 18.886 12.954 18.886 24.704s-7.916 21.651-18.706 24.661zM332.8 480.768h358.4c10.97 3.053 18.886 12.954 18.886 24.704s-7.916 21.651-18.706 24.661l-358.58 0.043c-10.97-3.053-18.886-12.954-18.886-24.704s7.916-21.651 18.706-24.661z" />
<glyph unicode="&#xe919;" glyph-name="calc_if" d="M390.144 557.824h44.288v-219.904h-44.288v219.904zM633.856 520.704v37.12h-150.528v-219.904h44.288v93.696h91.904v37.12h-91.904v51.968h106.24z" />
<glyph unicode="&#xe91a;" glyph-name="calc_less" d="M340.48 313.088c4.295-8.462 12.933-14.16 22.902-14.16 3.464 0 6.767 0.688 9.78 1.935l298.070 135.106c7.853 4.473 13.063 12.788 13.063 22.32 0 10.040-5.78 18.731-14.194 22.925l-298.388 114.755c-0.513 0.037-1.112 0.058-1.716 0.058-14.138 0-25.6-11.462-25.6-25.6 0-8.085 3.748-15.295 9.602-19.986l243.506-93.735-244.736-111.104c-8.462-4.295-14.16-12.933-14.16-22.902 0-3.464 0.688-6.767 1.935-9.78z" />
<glyph unicode="&#xe91b;" glyph-name="calc_less_equal" d="M675.584 292.352h-327.168c-10.738-3.205-18.432-12.992-18.432-24.576s7.694-21.371 18.251-24.529l327.349-0.047c10.738 3.205 18.432 12.992 18.432 24.576s-7.694 21.371-18.251 24.529zM350.72 368.384c4.295-8.462 12.933-14.16 22.902-14.16 3.464 0 6.767 0.688 9.78 1.935l298.070 135.106c7.853 4.473 13.063 12.788 13.063 22.32 0 10.040-5.78 18.731-14.194 22.925l-298.644 114.499c-0.622 0.054-1.347 0.084-2.078 0.084-14.138 0-25.6-11.462-25.6-25.6 0-8.247 3.899-15.583 9.955-20.265l243.515-93.74-244.736-110.848c-8.298-4.348-13.862-12.899-13.862-22.75 0-3.424 0.672-6.691 1.892-9.676z" />
<glyph unicode="&#xe91c;" glyph-name="calc_max" d="M282.112 408.064l-39.936 149.76h-66.56v-219.904h41.216v173.312l43.52-173.312h42.752l43.776 173.312v-173.312h41.216v219.904h-66.56l-39.424-149.76zM501.504 557.824l-85.76-219.904h47.104l18.176 51.2h87.808l19.2-51.2h48.384l-88.064 219.904zM494.848 424.96l29.696 81.664 30.208-81.664zM773.12 451.072l68.608 106.752h-51.456l-43.264-70.4-44.032 70.4h-51.968l68.096-104.96-75.264-114.944h53.248l48.896 76.288 48.896-76.288h53.504l-75.264 113.152z" />
<glyph unicode="&#xe91d;" glyph-name="calc_min" d="M353.792 408.064l-39.936 149.76h-66.304v-219.904h41.216v173.312l43.52-173.312h42.752l43.52 173.312v-173.312h41.216v219.904h-66.56l-39.424-149.76zM508.672 557.824h44.288v-219.904h-44.288v219.904zM735.232 557.824v-146.688l-89.856 146.688h-43.264v-219.904h41.216v143.616l88.576-143.616h44.544v219.904h-41.216z" />
<glyph unicode="&#xe91e;" glyph-name="calc_minus" d="M332.8 422.4h358.4c14.138 0 25.6 11.462 25.6 25.6s-11.462 25.6-25.6 25.6h-358.4c-14.138 0-25.6-11.462-25.6-25.6s11.462-25.6 25.6-25.6z" />
<glyph unicode="&#xe91f;" glyph-name="calc_more" d="M679.936 313.088c-3.831-8.515-12.241-14.336-22.010-14.336-0.002 0-0.004 0-0.006 0-3.635 0.037-7.063 0.883-10.126 2.366l-291.954 134.85c-7.531 4.548-12.489 12.689-12.489 21.988 0 10.315 6.1 19.205 14.89 23.259l292.511 114.754c2.549 1.017 5.504 1.606 8.596 1.606 10.235 0 18.961-6.458 22.326-15.521 0.729-2.352 1.119-4.867 1.119-7.472 0-11.127-7.099-20.596-17.014-24.125l-238.771-93.752 240.896-111.104c8.345-4.333 13.948-12.909 13.948-22.795 0-3.504-0.704-6.844-1.979-9.886z" />
<glyph unicode="&#xe920;" glyph-name="calc_more_equal" d="M672.256 292.352h-320.512c-10.738-3.205-18.432-12.992-18.432-24.576s7.694-21.371 18.251-24.529l320.693-0.047c10.738 3.205 18.432 12.992 18.432 24.576s-7.694 21.371-18.251 24.529zM345.856 491.264l292.352-135.168c2.918-1.437 6.35-2.285 9.978-2.304 0.008 0 0.010 0 0.012 0 9.769 0 18.179 5.821 21.949 14.184 1.273 3.025 1.977 6.365 1.977 9.869 0 9.885-5.603 18.462-13.806 22.727l-240.014 110.915 238.592 93.696c9.042 4.083 15.221 13.021 15.221 23.402 0 2.988-0.512 5.856-1.452 8.521-3.387 9.004-12.091 15.421-22.293 15.421-3.008 0-5.885-0.558-8.534-1.575l-292.701-114.377c-8.563-4.261-14.343-12.952-14.343-22.992 0-9.532 5.21-17.847 12.937-22.254z" />
<glyph unicode="&#xe921;" glyph-name="calc_multiply" d="M363.776 303.616c4.554-4.232 10.678-6.83 17.408-6.83s12.854 2.597 17.424 6.844l113.392 112.625 113.408-112.64c4.554-4.232 10.678-6.83 17.408-6.83s12.854 2.597 17.424 6.844c4.146 4.522 6.696 10.596 6.696 17.265s-2.55 12.743-6.729 17.299l-113.391 112.621 107.52 106.752c4.162 4.537 6.712 10.611 6.712 17.28s-2.55 12.743-6.729 17.299c-4.537 4.214-10.66 6.811-17.391 6.811s-12.854-2.597-17.424-6.844l-107.504-106.737-107.52 106.752c-4.554 4.232-10.678 6.83-17.408 6.83s-12.854-2.597-17.424-6.844c-4.146-4.522-6.696-10.596-6.696-17.265s2.55-12.743 6.729-17.299l107.503-106.733-113.408-112.64c-4.162-4.537-6.712-10.611-6.712-17.28s2.55-12.743 6.729-17.299z" />
<glyph unicode="&#xe922;" glyph-name="calc_notequal" d="M698.368 404.992h-270.336c-10.24 0-18.432-11.008-18.432-25.6s8.192-25.6 18.432-25.6h270.336c10.24 0 18.432 11.008 18.432 25.6s-8.192 25.6-18.432 25.6zM428.032 470.528h270.336c10.24 0 18.432 11.008 18.432 25.6s-8.192 25.6-18.432 25.6h-270.336c-10.24 0-18.432-11.008-18.432-25.6s8.192-25.6 18.432-25.6zM327.68 601.6c-11.264 0-20.48-6.144-20.48-13.568v-198.144c0-7.424 9.216-13.568 20.48-13.568s20.48 6.144 20.48 13.568v198.144c0 7.424-9.216 13.568-20.48 13.568zM307.2 332.8v-35.84c4.66-1.783 10.049-2.816 15.68-2.816 1.691 0 3.36 0.093 5.003 0.275 1.238-0.181 2.907-0.275 4.598-0.275 5.631 0 11.020 1.033 15.99 2.92l-0.31 35.737c-4.649 1.787-10.027 2.821-15.647 2.821-1.702 0-3.383-0.095-5.036-0.28-1.247 0.185-2.927 0.28-4.63 0.28-5.62 0-10.998-1.035-15.955-2.924z" />
<glyph unicode="&#xe923;" glyph-name="calc_or" d="M392.448 561.664c-0.677 0.014-1.476 0.021-2.277 0.021-16.244 0-31.739-3.205-45.888-9.018-10.302-4.512-19.75-11.17-27.579-19.385-8.384-8.557-15.268-18.556-20.252-29.597-6.618-16.051-10.31-33.938-10.31-52.687 0-1.504 0.024-3.003 0.071-4.496-0.123-1.715-0.19-3.975-0.19-6.25 0-29.251 11.050-55.922 29.202-76.065 18.446-18.46 44.067-29.942 72.369-29.942 1.527 0 3.045 0.033 4.556 0.1 1.080-0.066 2.599-0.1 4.125-0.1 28.303 0 53.924 11.482 72.458 30.043 19.111 20.507 30.841 48.11 30.841 78.452 0 1.851-0.044 3.691-0.13 5.52 0.145 1.834 0.222 4.28 0.222 6.743 0 29.62-11.154 56.636-29.492 77.074-18.421 18.336-43.962 29.739-72.167 29.739-1.956 0-3.9-0.055-5.829-0.163zM435.2 391.424c-10.886-11.77-26.409-19.115-43.648-19.115s-32.762 7.345-43.612 19.075c-9.746 13.393-15.57 30.118-15.57 48.203 0 2.963 0.156 5.889 0.461 8.771-0.181 1.516-0.267 3.7-0.267 5.904 0 19.111 6.443 36.716 17.276 50.763 10.272 12.024 25.664 19.734 42.857 19.774 0.665 0.028 1.437 0.043 2.213 0.043 16.599 0 31.514-7.214 41.779-18.678 10.579-13.785 16.924-31.209 16.924-50.116 0-2.202-0.086-4.384-0.255-6.543 0.152-1.489 0.228-3.559 0.228-5.646 0-19.912-6.931-38.206-18.512-52.599zM711.168 380.928c-8.054 13.45-16.507 25.080-25.869 35.901-6.585 6.821-14.419 12.943-23.035 17.85 16.6 1.755 31.729 9.201 43.015 20.489 9.086 10.276 14.634 23.866 14.634 38.751 0 0.777-0.015 1.55-0.045 2.32 0.011 0.262 0.016 0.7 0.016 1.14 0 12.334-3.532 23.844-9.639 33.572-5.839 9.299-14.645 16.617-25.095 20.611-13.428 3.969-28.451 6.185-43.992 6.185-2.659 0-5.302-0.065-7.929-0.193l-93.070 0.014v-219.904h44.288v92.16h8.96c0.857 0.036 1.863 0.056 2.874 0.056 6.903 0 13.582-0.955 19.914-2.741 4.764-1.93 9.225-5.076 12.766-9.057 7.904-9.516 15.577-20.039 22.578-31.033l32.748-49.129h52.992zM617.472 464.896h-32.768v55.808h34.56q26.88 0 32.512 0c6.643-0.882 12.42-4.053 16.62-8.681 3.712-4.429 5.954-10.158 5.954-16.412 0-0.539-0.017-1.073-0.049-1.604 0.010-0.159 0.014-0.432 0.014-0.706 0-5.802-1.723-11.201-4.686-15.714-2.948-4.22-7.264-7.458-12.308-9.061-10.69-2.366-22.775-3.695-35.171-3.695-1.645 0-3.284 0.023-4.917 0.070z" />
<glyph unicode="&#xe924;" glyph-name="calc_plus" d="M650.752 466.944h-122.624v120.32c0 10.462-8.482 18.944-18.944 18.944s-18.944-8.482-18.944-18.944v-119.808h-116.992c-10.462 0-18.944-8.482-18.944-18.944s8.482-18.944 18.944-18.944h117.248v-119.808c0-10.462 8.482-18.944 18.944-18.944s18.944 8.482 18.944 18.944v119.296h122.624c10.462 0 18.944 8.482 18.944 18.944s-8.482 18.944-18.944 18.944z" />
<glyph unicode="&#xe925;" glyph-name="chart_direction_xy" d="M819.2 183.467l-102.4 42.667v-34.133h-460.8v460.8h34.133l-42.667 102.4-42.667-102.4h34.133v-477.867h477.867v-34.133l102.4 42.667z" />
<glyph unicode="&#xe926;" glyph-name="count_down" d="M512 256l-352 384h704l-352-384z" />
<glyph unicode="&#xe927;" glyph-name="count_up" d="M512 640l352-384h-704l352 384z" />
<glyph unicode="&#xe928;" glyph-name="menu_options" d="M757.76 533.811l-11.469 27.853c39.526 90.931 36.864 93.594 29.082 102.4l-50.79 50.176-4.915 4.301h-5.734c-3.072 0-12.288 0-88.883-35.43l-28.262 10.65c-36.454 92.16-40.96 92.16-50.79 92.16h-71.066c-10.65 0-14.746 0-48.538-92.365l-28.058-11.674c-25.947 13.131-56.266 24.619-87.894 32.869l-3.242 0.718h-6.758l-53.453-54.477c-8.192-7.987-11.059-10.65 30.515-100.147l-11.264-27.648c-92.365-36.454-92.365-39.936-92.365-50.995v-71.066c0-11.059 0-15.155 92.57-48.947l11.469-27.648c-39.526-90.931-36.864-93.594-29.082-102.4l50.381-50.381 4.915-4.301h5.939c3.072 0 12.083 0 88.883 35.43l28.058-11.674c36.454-92.16 40.96-92.16 50.79-92.16h71.066c10.854 0 14.746 0 48.538 92.365l28.262 11.674c25.94-12.8 56.29-23.956 87.921-31.881l3.215-0.682h6.758l54.682 54.682c7.782 7.987 10.445 10.854-30.925 99.942l10.445 27.648c92.365 36.454 92.365 40.96 92.365 51.2v71.066c0 11.059 0 14.95-92.365 48.742zM821.658 421.786c-13.312-6.758-48.947-21.709-79.667-33.792l-5.734-2.253-20.48-51.405 2.867-5.939c13.722-29.286 28.877-63.898 33.792-78.029l-39.322-39.322c-13.926 4.506-49.971 19.251-80.486 32.358l-5.53 2.458-50.995-20.48-2.253-6.144c-11.059-30.515-24.986-65.946-31.539-79.462h-56.934c-6.758 13.107-21.709 48.742-33.792 79.462l-2.253 5.734-50.995 20.48-5.734-2.662c-30.106-13.926-65.741-29.696-78.438-34.202l-39.731 39.936c4.71 14.336 19.251 49.766 32.358 79.872l2.458 5.734-20.48 51.405-6.554 1.024c-30.515 11.059-65.946 24.986-79.462 31.334v55.296c13.312 6.758 48.947 21.709 79.462 33.792l5.734 2.253 20.48 51.405-1.229 6.963c-13.722 29.286-28.877 63.693-33.792 77.824l39.322 39.322c14.131-4.506 50.176-19.046 80.486-32.358l5.53-2.458 50.995 20.48 2.253 6.144c11.059 30.515 24.986 65.946 31.539 79.258h55.091c6.758-13.107 21.709-48.742 33.792-79.462l2.253-5.734 50.995-20.48 5.53 2.662c30.106 13.926 65.741 29.696 78.643 34.202l39.526-39.322c-4.71-14.336-19.251-49.766-32.358-79.872l-2.458-5.734 20.48-51.405 5.939-2.253c30.515-11.059 65.946-24.781 79.462-31.334zM630.17 448c0-65.263-52.906-118.17-118.17-118.17s-118.17 52.906-118.17 118.17c0 65.263 52.906 118.17 118.17 118.17s118.17-52.906 118.17-118.17z" />
<glyph unicode="&#xe929;" glyph-name="dd_export_bar_lane" d="M798.72 171.52h-71.475v266.24h-61.44v-266.24h-61.44v225.28h-61.44v-225.28h-61.44v327.68h-61.44v-327.68h-61.44v204.8h-61.44v-204.8h-61.44v563.2c0 5.655-4.585 10.24-10.24 10.24s-10.24-4.585-10.24-10.24v0-573.44c0-5.655 4.585-10.24 10.24-10.24v0h573.235c5.655 0 10.24 4.585 10.24 10.24s-4.585 10.24-10.24 10.24v0zM311.91 529.92c0.123-0.002 0.269-0.002 0.415-0.002 19.228 0 34.816 15.588 34.816 34.816 0 0.217-0.002 0.433-0.006 0.649v-0.032c0.048 0.797 0.076 1.729 0.076 2.667 0 4.743-0.701 9.323-2.005 13.641l0.087-0.334 88.883 79.667c4.051-3.472 9.355-5.586 15.154-5.586 1.229 0 2.436 0.095 3.614 0.278l-0.131-0.017c0.68-0.049 1.474-0.077 2.274-0.077 3.801 0 7.456 0.628 10.867 1.785l-0.238-0.070 98.304-122.88c-4.6-4.896-7.426-11.504-7.426-18.773 0-0.6 0.019-1.196 0.057-1.787l-0.004 0.081c-0.002-0.143-0.003-0.313-0.003-0.482 0-19.341 15.679-35.021 35.021-35.021 0.794 0 1.581 0.026 2.362 0.078l-0.106-0.006c18.811 0.191 34.12 14.928 35.221 33.489l0.005 0.098c-0.155 6.037-2.208 11.567-5.581 16.045l0.051-0.071 88.883 77.824c5.245-3.733 11.577-6.288 18.436-7.147l0.201-0.021c0.49-0.024 1.064-0.038 1.641-0.038 19.455 0 35.226 15.771 35.226 35.226 0 0.157-0.001 0.315-0.003 0.472v-0.024c0.001 0.111 0.002 0.243 0.002 0.374 0 9.556-3.919 18.196-10.237 24.402l-0.005 0.005c-4.121 4.884-10.023 8.152-16.692 8.798l-0.102 0.008c-2.671 1.166-5.782 1.844-9.052 1.844-0.058 0-0.115 0-0.173-0.001h0.009c-19.43-0.339-35.092-16.001-35.43-35.398v-0.032c-0.009-0.237-0.013-0.516-0.013-0.796 0-5.799 2.096-11.109 5.571-15.213l-0.028 0.034-89.702-76.186c-5.361 2.669-11.595 4.551-18.173 5.301l-0.259 0.024c-5.379-0.125-10.432-1.396-14.964-3.576l0.219 0.095-98.304 125.747c4.154 5.365 6.843 12.052 7.366 19.34l0.007 0.116c0 19.455-15.771 35.226-35.226 35.226s-35.226-15.771-35.226-35.226v0c0-6.963 1.843-12.288 1.843-15.974l-87.040-79.667c-5.917 3.28-12.96 5.243-20.455 5.325h-0.025c-0.247 0.006-0.537 0.010-0.829 0.010-18.718 0-33.944-14.946-34.396-33.555l-0.001-0.042c0.335-19.36 15.884-34.98 35.183-35.43l0.042-0.001z" />
<glyph unicode="&#xe92a;" glyph-name="dd_export_bar_stack" d="M798.72 171.52h-92.16v61.44h-102.4v-61.44h-40.96v327.68h-102.4v-327.68h-40.96v163.84h-102.4v-163.84h-81.92v563.2c0 5.655-4.585 10.24-10.24 10.24s-10.24-4.585-10.24-10.24v0-573.44c0-5.655 4.585-10.24 10.24-10.24v0h573.44c5.655 0 10.24 4.585 10.24 10.24s-4.585 10.24-10.24 10.24v0zM317.44 478.72h102.4v-122.88h-102.4v122.88zM460.8 601.6h102.4v-81.92h-102.4v81.92zM604.16 335.36h102.4v-81.92h-102.4v81.92z" />
<glyph unicode="&#xe92b;" glyph-name="dd_export_line" d="M360.243 345.6c0.35-0.009 0.762-0.014 1.175-0.014 26.693 0 48.333 21.639 48.333 48.333 0 14.203-6.126 26.975-15.88 35.818l-0.041 0.036 56.73 87.45c6.031-2.693 13.068-4.273 20.47-4.301h0.010c0.129-0.001 0.282-0.002 0.435-0.002 14.454 0 27.618 5.526 37.495 14.58l-0.041-0.037 57.958-53.658c-2.795-4.502-4.452-9.965-4.452-15.814 0-1.066 0.055-2.12 0.162-3.158l-0.011 0.13c0-0.005 0-0.011 0-0.017 0-24.452 19.478-44.354 43.764-45.038l0.063-0.001c0.245-0.005 0.534-0.008 0.824-0.008 24.544 0 44.442 19.897 44.442 44.442 0 0.219-0.002 0.437-0.005 0.655v-0.033c0.021 0.62 0.033 1.349 0.033 2.081 0 4.921-0.534 9.717-1.547 14.334l0.081-0.441 59.392 163.84c10.824-8.773 24.765-14.084 39.947-14.084 35.177 0 63.693 28.516 63.693 63.693 0 34.316-27.138 62.294-61.124 63.642l-0.122 0.004c-35.281-0.228-63.848-28.651-64.307-63.854v-0.043c0.538-12.183 3.656-23.52 8.816-33.642l-0.215 0.464-57.958-163.84c-6.959 8.927-17.714 14.615-29.797 14.615-0.829 0-1.652-0.027-2.468-0.080l0.111 0.006c-10.79-0.272-20.501-4.675-27.655-11.681l0.007 0.007-56.525 55.091c2.853 7.2 4.508 15.541 4.508 24.268 0 0.18-0.001 0.36-0.002 0.54v-0.028c0.015 0.489 0.024 1.064 0.024 1.642 0 30.784-24.788 55.778-55.493 56.112h-0.032c-30.843-1.462-55.297-26.824-55.297-57.897 0-0.094 0-0.187 0.001-0.28v0.014c0.503-16.378 7.035-31.14 17.44-42.223l-0.032 0.034-56.73-85.606c-4.806 1.701-10.35 2.741-16.12 2.866l-0.059 0.001c-26.814-1.66-47.955-23.729-48.128-50.773v-0.017c0.773-26.264 21.864-47.355 48.056-48.126l0.072-0.002zM794.829 168.243h-563.2v563.2c0 5.655-4.585 10.24-10.24 10.24s-10.24-4.585-10.24-10.24v0-573.44c0-5.655 4.585-10.24 10.24-10.24v0h573.44c5.655 0 10.24 4.585 10.24 10.24s-4.585 10.24-10.24 10.24v0z" />
<glyph unicode="&#xe92c;" glyph-name="dd_export_pie" d="M659.661 225.997c67.542 43.885 112.986 116.861 118.538 200.743l0.041 0.78h-245.76zM491.52 448v266.24c-137.707-9.603-245.78-123.668-245.78-262.976 0-1.148 0.007-2.293 0.022-3.438l-0.002 0.174c0-147.040 119.2-266.24 266.24-266.24v0c0.055 0 0.121 0 0.187 0 43.259 0 84.079 10.446 120.074 28.952l-1.477-0.69-133.53 229.376c-0.614 3.482-5.734 5.12-5.734 8.602zM512 714.24v-266.24h266.24v17.613c-7.782 133.325-132.71 240.64-266.24 248.627z" />
<glyph unicode="&#xe92d;" glyph-name="dd_export_scatter" d="M419.84 407.040c0-28.277-22.923-51.2-51.2-51.2s-51.2 22.923-51.2 51.2c0 28.277 22.923 51.2 51.2 51.2s51.2-22.923 51.2-51.2zM665.6 468.48c0-28.277-22.923-51.2-51.2-51.2s-51.2 22.923-51.2 51.2c0 28.277 22.923 51.2 51.2 51.2s51.2-22.923 51.2-51.2zM522.24 581.12c0-33.932-27.508-61.44-61.44-61.44s-61.44 27.508-61.44 61.44c0 33.932 27.508 61.44 61.44 61.44s61.44-27.508 61.44-61.44zM808.96 683.52c0-33.932-27.508-61.44-61.44-61.44s-61.44 27.508-61.44 61.44c0 33.932 27.508 61.44 61.44 61.44s61.44-27.508 61.44-61.44zM798.72 171.52h-563.2v563.2c0 5.655-4.585 10.24-10.24 10.24s-10.24-4.585-10.24-10.24v0-573.44c0-5.655 4.585-10.24 10.24-10.24v0h573.44c5.655 0 10.24 4.585 10.24 10.24s-4.585 10.24-10.24 10.24v0z" />
<glyph unicode="&#xe92e;" glyph-name="dd_format" horiz-adv-x="1638" d="M1351.68 423.834v68.813l-50.381 8.397c-4.385 16.407-10.55 30.778-18.453 43.989l0.431-0.777 29.696 40.96-48.742 48.742-40.96-29.696c-12.436 7.403-26.811 13.502-42.023 17.548l-1.19 0.269-9.011 51.2h-68.813l-8.397-50.381c-16.402-4.316-30.777-10.414-44.002-18.25l0.789 0.433-40.96 29.696-48.742-48.742 29.696-40.96c-7.406-12.436-13.505-26.811-17.549-42.024l-0.269-1.188-51.2-9.216v-68.813l50.381-8.397c4.382-16.407 10.547-30.778 18.452-43.988l-0.43 0.775-29.696-40.96 48.742-48.742 40.96 29.696c12.436-7.515 26.812-13.683 42.044-17.756l1.169-0.266 9.011-50.995h69.018l8.397 50.381c16.402 4.345 30.777 10.513 43.971 18.445l-0.758-0.423 40.96-29.696 48.742 48.742-29.696 40.96c7.467 12.434 13.631 26.805 17.747 42.017l0.276 1.196zM1136.64 386.56c-39.588 0-71.68 32.092-71.68 71.68s32.092 71.68 71.68 71.68c39.588 0 71.68-32.092 71.68-71.68v0c-0.116-39.541-32.139-71.564-71.669-71.68h-0.011zM307.2 202.24v491.52h737.28c4.791 7.731 10.066 14.438 15.995 20.502l-0.021-0.022h-773.734v-532.48h786.432c-6.758 4.915-2.662 11.674-8.192 20.48zM467.354 321.229v27.648c15.511 0.776 29.389 7.191 39.748 17.219l-0.017-0.016c8.912 9.611 14.381 22.526 14.381 36.718 0 0.772-0.016 1.539-0.048 2.303l0.004-0.109c0.012 0.451 0.019 0.982 0.019 1.515 0 7.54-1.358 14.763-3.844 21.438l0.139-0.425c-2.58 6.509-6.184 12.086-10.671 16.817l0.022-0.023c-4.879 5.099-10.476 9.456-16.64 12.922l-0.358 0.185c-7.647 4.206-16.766 8.348-26.207 11.824l-1.441 0.464c-9.652 3.167-17.981 7.993-25.068 14.202l0.082-0.070c-4.604 4.838-7.437 11.399-7.437 18.622 0 0.654 0.023 1.302 0.069 1.944l-0.005-0.086c-0.018 0.375-0.027 0.814-0.027 1.255 0 7.408 2.81 14.161 7.422 19.249l-0.022-0.024c4.981 4.595 11.661 7.412 19 7.412 0.521 0 1.038-0.014 1.552-0.042l-0.072 0.003c0.092 0.001 0.2 0.002 0.308 0.002 8.254 0 15.574-4.003 20.124-10.173l0.048-0.069c4.919-7.199 7.856-16.092 7.856-25.672 0-0.911-0.027-1.816-0.079-2.715l0.006 0.124h33.382c0.046 0.972 0.072 2.112 0.072 3.257 0 15.719-4.933 30.286-13.335 42.237l0.156-0.234c-8.871 11.271-21.951 18.884-36.833 20.46l-0.236 0.020v31.949h-21.094v-30.72c-14.911-1.253-28.064-7.918-37.66-17.998l-0.023-0.024c-8.671-9.72-13.969-22.611-13.969-36.739 0-0.764 0.016-1.525 0.046-2.282l-0.003 0.108c-0.010-0.407-0.016-0.886-0.016-1.367 0-22.436 12.978-41.841 31.836-51.118l0.334-0.149c7.511-4.066 16.438-8.008 25.689-11.262l1.344-0.412c9.63-2.976 17.924-7.83 24.827-14.173l-0.046 0.042c4.595-4.981 7.412-11.661 7.412-19 0-0.521-0.014-1.038-0.042-1.552l0.003 0.072c0.010-0.27 0.015-0.588 0.015-0.907 0-7.662-3.14-14.591-8.203-19.569l-0.004-0.004c-5.771-4.895-13.303-7.871-21.53-7.871-0.856 0-1.704 0.032-2.543 0.095l0.112-0.007c-0.524-0.031-1.136-0.049-1.753-0.049-9.095 0-17.285 3.875-23.009 10.063l-0.019 0.021c-5.525 6.919-8.865 15.794-8.865 25.449 0 0.773 0.021 1.542 0.064 2.305l-0.005-0.106h-33.178c-0.050-0.967-0.078-2.1-0.078-3.24 0-15.971 5.591-30.637 14.922-42.146l-0.098 0.125c10.22-11.491 24.588-19.1 40.734-20.465l0.226-0.015v-27.648zM619.93 351.13v207.872h-4.301l-78.234-29.696v-29.082l49.152 17.203v-166.298h33.382zM668.262 338.227c-2.952-8.603-6.622-16.049-11.096-22.924l0.242 0.396 18.432-11.059c7.766 6.834 14.050 15.15 18.444 24.527l0.193 0.458c4.467 8.836 7.168 19.235 7.372 30.243l0.001 0.067v24.576h-30.515v-26.829c-0.106-6.978-1.221-13.657-3.206-19.949l0.134 0.493zM774.144 561.050c-1.209 0.091-2.619 0.144-4.041 0.144-18.427 0-34.81-8.754-45.216-22.331l-0.1-0.136c-10.335-16.83-16.456-37.211-16.456-59.023 0-2.796 0.101-5.569 0.298-8.315l-0.021 0.368v-35.84c-0.124-1.966-0.195-4.264-0.195-6.578 0-21.858 6.33-42.238 17.256-59.407l-0.267 0.449c10.55-13.582 26.885-22.239 45.242-22.239 1.304 0 2.597 0.044 3.879 0.13l-0.174-0.009c1.151-0.084 2.493-0.131 3.846-0.131 18.51 0 34.934 8.929 45.2 22.715l0.106 0.15c10.331 16.995 16.446 37.542 16.446 59.517 0 2.766-0.097 5.51-0.288 8.228l0.021-0.366v35.84c0.124 1.96 0.194 4.249 0.194 6.556 0 21.703-6.251 41.945-17.052 59.025l0.268-0.454c-10.556 13.356-26.756 21.85-44.939 21.85-1.41 0-2.809-0.051-4.194-0.152l0.185 0.011zM806.298 430.182c0.057-1.179 0.090-2.561 0.090-3.95 0-13.443-3.055-26.172-8.507-37.531l0.226 0.521c-4.461-7.899-12.801-13.145-22.366-13.145-0.489 0-0.975 0.014-1.458 0.041l0.067-0.003c-0.387-0.020-0.84-0.032-1.296-0.032-10.075 0-18.823 5.684-23.211 14.020l-0.069 0.143c-5.028 11.033-7.959 23.928-7.959 37.508 0 2.007 0.064 3.999 0.19 5.974l-0.014-0.269v46.899c-0.085 1.403-0.133 3.044-0.133 4.696 0 13.194 3.073 25.669 8.542 36.751l-0.217-0.487c5.221 8.008 14.135 13.228 24.269 13.228s19.048-5.22 24.201-13.117l0.068-0.111c5.032-10.885 7.967-23.622 7.967-37.045 0-2.026-0.067-4.036-0.199-6.029l0.014 0.271z" />
<glyph unicode="&#xe92f;" glyph-name="dd_format_1" horiz-adv-x="1638" d="M915.251 357.683l-34.611-155.443 155.443 34.611 237.773 237.773-120.832 120.832zM1043.456 345.6l-19.456 19.456 103.424 102.4 19.251-19.251zM1265.254 673.28c-0.061 0-0.133 0-0.204 0-19.461 0-37.413-6.463-51.826-17.36l0.216 0.157-34.611-34.611 121.037-121.037 34.611 34.611c10.773 14.256 17.254 32.278 17.254 51.814 0 47.732-38.694 86.426-86.426 86.426-0.018 0-0.036 0-0.054 0h0.003zM467.149 345.395v205.21h-3.891l-73.933-29.286v-28.672l46.49 16.998v-164.25h31.334zM629.76 462.746c4.915 9.208 7.914 20.095 8.19 31.657l0.002 0.087c0.052 0.872 0.081 1.891 0.081 2.917 0 14.949-6.233 28.443-16.241 38.025l-0.019 0.018c-10.961 9.348-25.292 15.036-40.951 15.036-1.156 0-2.305-0.031-3.445-0.092l0.159 0.007c-0.434 0.010-0.945 0.015-1.457 0.015-12.058 0-23.407-3.038-33.322-8.391l0.373 0.184c-9.772-5.338-17.599-13.166-22.79-22.643l-0.148-0.294c-5.163-9.406-8.2-20.612-8.2-32.526 0-0.373 0.003-0.745 0.009-1.117l-0.001 0.056h32.154c-0.031 0.599-0.049 1.301-0.049 2.006 0 9.649 3.337 18.519 8.919 25.519l-0.064-0.083c5.573 6.197 13.618 10.077 22.569 10.077 0.562 0 1.12-0.015 1.675-0.045l-0.077 0.003c0.259 0.009 0.562 0.014 0.867 0.014 7.791 0 14.788-3.399 19.59-8.794l0.023-0.026c4.866-5.865 7.819-13.47 7.819-21.765 0-0.557-0.013-1.11-0.040-1.66l0.003 0.078c0.004-0.233 0.007-0.509 0.007-0.785 0-7.971-2.051-15.463-5.655-21.977l0.119 0.234c-6.25-10.194-13.011-19.039-20.569-27.13l0.089 0.096-64.102-73.318v-22.528h119.603v20.48h-81.92l50.176 58.982c10.105 10.962 18.95 23.335 26.152 36.723l0.472 0.96zM737.28 372.224c-0.453-0.025-0.983-0.038-1.516-0.038-7.991 0-15.25 3.135-20.615 8.242l0.012-0.012c-5.067 5.167-8.195 12.253-8.195 20.069 0 0.144 0.001 0.289 0.003 0.433v-0.022h-31.13c-0.037-0.729-0.057-1.584-0.057-2.443 0-15.249 6.561-28.965 17.014-38.479l0.042-0.038c12.055-9.725 27.561-15.611 44.442-15.611s32.387 5.886 44.578 15.717l-0.136-0.106c10.58 10.091 17.158 24.297 17.158 40.039 0 1.477-0.058 2.941-0.172 4.389l0.012-0.191c0.011 0.388 0.017 0.846 0.017 1.304 0 10.162-2.984 19.627-8.124 27.566l0.12-0.198c-5.622 8.166-13.638 14.327-23.026 17.518l-0.322 0.095c8.443 4.092 15.368 10.163 20.364 17.633l0.116 0.184c4.966 7.023 7.951 15.755 7.987 25.181v0.009c0.038 0.766 0.060 1.663 0.060 2.565 0 14.981-6.047 28.549-15.833 38.397l0.003-0.003c-10.872 9.917-25.399 15.992-41.344 15.992-0.513 0-1.025-0.006-1.535-0.019l0.076 0.001c-0.31 0.005-0.676 0.008-1.043 0.008-10.675 0-20.749-2.577-29.633-7.142l0.365 0.17c-8.666-4.847-15.633-11.814-20.344-20.217l-0.136-0.263c-4.761-7.798-7.58-17.233-7.58-27.326 0-0.185 0.001-0.37 0.003-0.555v0.028h30.925c-0.024 0.427-0.038 0.926-0.038 1.429 0 7.465 3.072 14.212 8.020 19.046l0.005 0.005c5.061 4.828 11.931 7.8 19.495 7.8 0.347 0 0.692-0.006 1.035-0.019l-0.050 0.001c0.46 0.028 0.999 0.044 1.541 0.044 7.393 0 14.088-2.99 18.94-7.827l-0.001 0.001c4.379-5.447 7.029-12.447 7.029-20.065 0-0.722-0.024-1.439-0.071-2.15l0.005 0.097c0.041-0.579 0.064-1.255 0.064-1.937 0-8.029-3.231-15.303-8.464-20.594l0.003 0.003c-5.661-4.975-13.132-8.010-21.313-8.010-0.427 0-0.853 0.008-1.276 0.025l0.061-0.002h-18.842v-26.214h18.227c0.831 0.069 1.798 0.109 2.775 0.109 8.814 0 16.877-3.219 23.077-8.545l-0.047 0.039c5.281-6.486 8.48-14.85 8.48-23.962s-3.199-17.476-8.535-24.031l0.055 0.070c-5.499-5.106-12.892-8.24-21.017-8.24-0.603 0-1.203 0.017-1.798 0.051l0.082-0.004zM808.96 202.24h-501.76v491.52h737.28v-92.16c0-5.655 4.585-10.24 10.24-10.24s10.24 4.585 10.24 10.24v0 102.4c0 5.655-4.585 10.24-10.24 10.24v0h-757.76c-5.655 0-10.24-4.585-10.24-10.24v0-512c0-5.655 4.585-10.24 10.24-10.24v0h512c5.655 0 10.24 4.585 10.24 10.24s-4.585 10.24-10.24 10.24v0z" />
<glyph unicode="&#xe930;" glyph-name="dd_open_local" d="M655.36 345.6s1.843 0 0 0zM491.52 345.6v-40.96h-40.96c-4.496-1.315-7.724-5.4-7.724-10.24s3.228-8.925 7.649-10.221l0.075-0.019h122.88c4.496 1.315 7.724 5.4 7.724 10.24s-3.228 8.925-7.649 10.221l-0.075 0.019h-40.96v40.96h122.88c-0.111 0.305-0.176 0.657-0.176 1.024s0.064 0.719 0.182 1.045l-0.007-0.021v154.214c0.002 0.061 0.003 0.133 0.003 0.205 0 4.072-3.301 7.373-7.373 7.373-0.001 0-0.002 0-0.003 0h-271.974c-4.096-0.114-7.373-3.462-7.373-7.575 0-0.001 0-0.002 0-0.003v0-154.214c0.111-0.305 0.176-0.657 0.176-1.024s-0.064-0.719-0.182-1.045l0.007 0.021h122.88zM368.64 345.6c-1.843 0 0 0 0 0zM775.782 600.166c-5.039 4.892-11.025 8.841-17.653 11.54l-0.37 0.133h-20.48v40.96c-1.759 10.527-9.953 18.721-20.335 20.46l-0.145 0.020h-266.24l-20.48 40.96h-122.88c-10.527-1.759-18.721-9.953-20.46-20.335l-0.020-0.145v-81.92h-20.48c-6.996-2.838-12.981-6.786-18.037-11.687l0.014 0.014c-1.588-2.001-2.547-4.564-2.547-7.35 0-0.513 0.033-1.019 0.096-1.515l-0.006 0.059 43.827-399.155c0-5.734 12.083-9.83 17.818-9.83h409.395c5.53 0 16.998 4.096 17.818 9.83l43.622 399.155c0.057 0.437 0.090 0.943 0.090 1.456 0 2.786-0.959 5.349-2.566 7.375l0.019-0.025zM716.8 202.24h-409.6l-40.96 389.12h491.52z" />
<glyph unicode="&#xe931;" glyph-name="dd_open_remote" d="M512 415.846c-0.567 0.010-1.235 0.016-1.905 0.016-28.798 0-55.152-10.464-75.466-27.798l0.162 0.135c-2.002-1.55-3.278-3.954-3.278-6.656s1.276-5.106 3.259-6.642l0.019-0.014 15.36-30.72c2.056-1.751 4.744-2.817 7.68-2.817s5.624 1.065 7.697 2.831l-0.017-0.014c12.125 10.078 27.855 16.195 45.014 16.195 0.519 0 1.037-0.006 1.553-0.017l-0.077 0.001c17.55-0.157 33.653-6.223 46.447-16.303l-0.162 0.123c2.056-1.751 4.744-2.817 7.68-2.817s5.624 1.065 7.697 2.831l-0.017-0.014 15.36 30.72c2.002 1.55 3.278 3.954 3.278 6.656s-1.276 5.106-3.259 6.642l-0.019 0.014c-20.152 17.197-46.504 27.66-75.301 27.66-0.599 0-1.197-0.005-1.794-0.014l0.090 0.001zM540.672 310.374c0-14.478-12.837-26.214-28.672-26.214s-28.672 11.737-28.672 26.214c0 14.478 12.837 26.214 28.672 26.214s28.672-11.737 28.672-26.214zM387.277 415.027c2.056-1.751 4.744-2.817 7.68-2.817s5.624 1.065 7.697 2.831l-0.017-0.014c29.449 24.318 67.581 39.068 109.158 39.068s79.71-14.75 109.45-39.302l-0.292 0.234c2.056-1.751 4.744-2.817 7.68-2.817s5.624 1.065 7.697 2.831l-0.017-0.014 15.36 30.72c2 1.51 3.279 3.884 3.279 6.555 0 0.071-0.001 0.142-0.003 0.213v-0.010c0.031 0.246 0.049 0.532 0.049 0.821 0 2.5-1.317 4.692-3.296 5.92l-0.030 0.017c-36.709 31.21-84.657 50.192-137.039 50.192-0.926 0-1.851-0.006-2.775-0.018l0.14 0.001c-1.006 0.017-2.192 0.027-3.38 0.027-52.343 0-100.211-19.157-136.976-50.843l0.273 0.23c-2.002-1.55-3.278-3.954-3.278-6.656s1.276-5.106 3.259-6.642l0.019-0.014zM775.782 600.166c-5.041 4.888-11.027 8.835-17.652 11.54l-0.371 0.134h-20.48v40.96c-1.759 10.527-9.953 18.721-20.335 20.46l-0.145 0.020h-266.24l-20.48 40.96h-122.88c-10.527-1.759-18.721-9.953-20.46-20.335l-0.020-0.145v-81.92h-20.48c-6.994-2.843-12.979-6.791-18.037-11.688l0.015 0.014c-1.593-1.979-2.556-4.522-2.556-7.29 0-0.535 0.036-1.061 0.105-1.576l-0.007 0.060 43.827-399.155c0-5.734 12.083-9.83 17.818-9.83h409.395c5.53 0 16.998 4.096 17.818 9.83l43.622 399.155c0.057 0.437 0.090 0.943 0.090 1.456 0 2.786-0.959 5.349-2.566 7.375l0.019-0.025zM716.8 202.24h-409.6l-40.96 389.12h491.52z" />
<glyph unicode="&#xe932;" glyph-name="dd_save_exel" d="M566.477 509.44l-54.477-73.318-54.477 73.318h-77.005l92.365-105.677-104.243-140.083h149.299l-5.939 40.96h-40.96l40.96 61.44 63.488-102.4h79.872l-104.243 140.083 92.365 105.677h-77.005zM731.955 597.914l-114.893 129.638c-3.779 4.4-9.348 7.169-15.564 7.169-0.072 0-0.144 0-0.216-0.001h-290.191c-0.061 0.001-0.133 0.001-0.205 0.001-13.347 0-24.166-10.82-24.166-24.166 0 0 0-0.001 0-0.001v0-525.107c0 0 0-0.001 0-0.001 0-13.347 10.82-24.166 24.166-24.166 0.072 0 0.144 0 0.216 0.001h401.807c0.061-0.001 0.133-0.001 0.205-0.001 13.347 0 24.166 10.82 24.166 24.166 0 0 0 0.001 0 0.001v0 398.746c-0.014 5.293-2.034 10.111-5.339 13.738l0.015-0.016zM716.8 181.76h-409.6v532.48h286.72v-122.88c3.146-9.781 10.699-17.334 20.258-20.418l0.222-0.062h102.4z" />
<glyph unicode="&#xe933;" glyph-name="dd_save_html" d="M599.245 442.266c-3.386-3.643-5.464-8.542-5.464-13.926s2.078-10.283 5.476-13.939l-0.012 0.013 33.997-38.093-33.997-38.093c-3.386-3.643-5.464-8.542-5.464-13.926s2.078-10.283 5.476-13.939l-0.012 0.013c3.024-3.548 7.497-5.784 12.493-5.784s9.469 2.236 12.474 5.761l0.019 0.023 46.49 52.019c3.386 3.643 5.464 8.542 5.464 13.926s-2.078 10.283-5.476 13.939l0.012-0.013-46.49 52.019c-3.024 3.548-7.497 5.784-12.493 5.784s-9.469-2.236-12.474-5.761l-0.019-0.023zM390.554 376.32l34.202 38.093c3.386 3.643 5.464 8.542 5.464 13.926s-2.078 10.283-5.476 13.939l0.012-0.013c-3.024 3.548-7.497 5.784-12.493 5.784s-9.469-2.236-12.474-5.761l-0.019-0.023-46.49-52.019c-3.386-3.643-5.464-8.542-5.464-13.926s2.078-10.283 5.476-13.939l-0.012 0.013 46.49-52.019c3.024-3.548 7.497-5.784 12.493-5.784s9.469 2.236 12.474 5.761l0.019 0.023c3.386 3.643 5.464 8.542 5.464 13.926s-2.078 10.283-5.476 13.939l0.012-0.013zM560.538 508.211c-2.085 0.783-4.494 1.237-7.009 1.237-0.2 0-0.399-0.003-0.598-0.009l0.029 0.001c-8.219-0.299-15.176-5.397-18.177-12.563l-0.050-0.135-82.944-227.123c-0.894-2.216-1.413-4.785-1.413-7.475s0.519-5.26 1.462-7.613l-0.049 0.138c2.13-4.733 5.974-8.377 10.722-10.196l0.132-0.044c2.042-0.816 4.409-1.289 6.887-1.289 0.531 0 1.058 0.022 1.578 0.064l-0.068-0.005c8.219 0.299 15.176 5.397 18.177 12.563l0.050 0.135 83.763 227.123c0.566 1.789 0.892 3.846 0.892 5.979 0 8.763-5.504 16.241-13.244 19.165l-0.141 0.047zM731.955 597.914l-114.893 129.638c-3.779 4.4-9.348 7.169-15.564 7.169-0.072 0-0.144 0-0.216-0.001h-290.191c-0.061 0.001-0.133 0.001-0.205 0.001-13.347 0-24.166-10.82-24.166-24.166 0 0 0-0.001 0-0.001v0-525.107c0 0 0-0.001 0-0.001 0-13.347 10.82-24.166 24.166-24.166 0.072 0 0.144 0 0.216 0.001h401.807c0.061-0.001 0.133-0.001 0.205-0.001 13.347 0 24.166 10.82 24.166 24.166 0 0 0 0.001 0 0.001v0 398.746c-0.014 5.293-2.034 10.111-5.339 13.738l0.015-0.016zM716.8 181.76h-409.6v532.48h286.72v-122.88c3.146-9.781 10.699-17.334 20.258-20.418l0.222-0.062h102.4z" />
<glyph unicode="&#xe934;" glyph-name="dd_save_image" d="M382.976 509.44c-8.077-1.417-14.137-8.379-14.137-16.756 0-0.157 0.002-0.314 0.006-0.47v0.023c0-11.469 0-23.142 0-34.611q0-97.69 0-195.584c-0.031-0.391-0.049-0.846-0.049-1.306 0-9.614 7.794-17.408 17.408-17.408 1.103 0 2.183 0.103 3.229 0.299l-0.108-0.017h245.555c0.934-0.178 2.009-0.279 3.107-0.279 9.614 0 17.408 7.794 17.408 17.408 0 0.387-0.013 0.77-0.037 1.15l0.003-0.052v114.688q0 57.754 0 115.712c0.001 0.079 0.002 0.171 0.002 0.264 0 9.614-7.794 17.408-17.408 17.408-0.505 0-1.006-0.022-1.5-0.064l0.064 0.004h-248.832c-0.139 0.003-0.303 0.005-0.468 0.005-1.501 0-2.967-0.151-4.383-0.438l0.141 0.024zM501.555 328.806l46.285 64.512c18.022-33.792 46.080-109.158 46.080-109.158h-163.84c15.364 29.307 30.649 54.023 47.446 77.589l-1.366-2.017zM440.115 468.89c0.061 0 0.132 0.001 0.204 0.001 16.966 0 30.72-13.754 30.72-30.72s-13.754-30.72-30.72-30.72c-16.894 0-30.603 13.637-30.719 30.503v0.011c0.231 16.902 13.987 30.515 30.922 30.515 0.001 0 0.002 0 0.003 0v0zM731.955 597.914l-114.893 129.638c-3.779 4.4-9.348 7.169-15.564 7.169-0.072 0-0.144 0-0.216-0.001h-290.191c-0.061 0.001-0.133 0.001-0.205 0.001-13.347 0-24.166-10.82-24.166-24.166 0 0 0-0.001 0-0.001v0-525.107c0 0 0-0.001 0-0.001 0-13.347 10.82-24.166 24.166-24.166 0.072 0 0.144 0 0.216 0.001h401.807c0.061-0.001 0.133-0.001 0.205-0.001 13.347 0 24.166 10.82 24.166 24.166 0 0 0 0.001 0 0.001v0 398.746c-0.014 5.293-2.034 10.111-5.339 13.738l0.015-0.016zM716.8 181.76h-409.6v532.48h286.72v-122.88c3.146-9.781 10.699-17.334 20.258-20.418l0.222-0.062h102.4z" />
<glyph unicode="&#xe935;" glyph-name="dd_save_pdf" d="M570.368 366.080c-7.797 4.49-14.489 9.093-20.787 14.166l0.307-0.239c-15.864 16.646-28.361 36.659-36.295 58.841l-0.364 1.165v2.253c9.216 30.106 15.974 66.97 0 83.149-3.92 2.47-8.578 4.149-13.576 4.697l-0.146 0.013h-4.506c-9.216 0-15.974-9.216-18.432-18.432-3.104-9.607-4.894-20.661-4.894-32.133 0-15.955 3.462-31.101 9.676-44.728l-0.276 0.675c-7.831-26.387-16.394-48.596-26.456-69.96l1.266 2.99c-9.216-16.179-15.974-30.106-22.938-40.96-9.216-4.71-15.974-9.216-20.48-11.469-20.398-10.428-35.947-27.905-43.632-49.147l-0.196-0.619c-0.059-0.585-0.093-1.264-0.093-1.951 0-3.48 0.868-6.758 2.4-9.628l-0.054 0.11v-2.253l11.469-6.963c2.253-2.253 4.506-2.253 9.216-2.253 18.432 0 40.96 23.142 68.813 71.68 2.253 2.253 2.253 2.253 4.506 2.253 26.909 9.348 58.125 15.902 90.486 18.355l1.264 0.077c20.109-9.897 43.727-15.83 68.695-16.178l0.117-0.001c0.097-0.001 0.211-0.001 0.325-0.001 7.342 0 14.277 1.74 20.416 4.831l-0.261-0.119c3.020 3.988 6.064 8.534 8.848 13.252l0.368 0.674c0.062 0.716 0.097 1.549 0.097 2.39 0 4.167-0.864 8.133-2.424 11.727l0.074-0.191c-6.963 11.469-25.19 16.179-52.838 16.179-9.011-0.205-18.227-2.253-29.696-2.253zM384.614 263.68c7.513 14.677 17.564 27.019 29.695 36.906l0.206 0.163c3.313 2.697 7.089 5.028 11.15 6.836l0.319 0.127c-13.722-27.443-27.648-41.37-41.37-44.032zM494.797 517.837c1.244 0 2.253 1.009 2.253 2.253v0l2.253-2.253v-2.253c1.202-3.452 1.896-7.43 1.896-11.571s-0.694-8.12-1.973-11.826l0.076 0.255v-3.482c-0.736-7.561-2.328-14.507-4.695-21.083l0.189 0.603c-2.115 7.461-3.331 16.030-3.331 24.883s1.216 17.422 3.49 25.549l-0.159-0.666zM464.896 333.517h-4.506c4.506 9.216 9.216 16.179 13.722 25.395 7.529 14.894 15.279 33.229 21.897 52.096l1.040 3.404c9.643-20.331 21.132-37.848 34.664-53.554l-0.258 0.306c2.577-2.818 5.628-5.15 9.037-6.881l0.179-0.083c-28.466-4.511-53.953-11.788-78.064-21.725l2.288 0.835zM639.181 340.48v-2.253h-6.963c-16.059 1.197-30.891 5.301-44.358 11.788l0.736-0.319v2.253h5.325c32.154 0 40.96-6.963 43.622-9.216-0.012-0.086-0.018-0.185-0.018-0.285 0-1.032 0.694-1.902 1.641-2.169l0.016-0.004zM731.955 597.914l-114.893 129.638c-3.779 4.4-9.348 7.169-15.564 7.169-0.072 0-0.144 0-0.216-0.001h-290.191c-0.061 0.001-0.133 0.001-0.205 0.001-13.347 0-24.166-10.82-24.166-24.166 0 0 0-0.001 0-0.001v0-525.107c0 0 0-0.001 0-0.001 0-13.347 10.82-24.166 24.166-24.166 0.072 0 0.144 0 0.216 0.001h401.807c0.061-0.001 0.133-0.001 0.205-0.001 13.347 0 24.166 10.82 24.166 24.166 0 0 0 0.001 0 0.001v0 398.746c-0.014 5.293-2.034 10.111-5.339 13.738l0.015-0.016zM716.8 181.76h-409.6v532.48h286.72v-122.88c3.146-9.781 10.699-17.334 20.258-20.418l0.222-0.062h102.4z" />
<glyph unicode="&#xe936;" glyph-name="dd_save_print" d="M409.6 314.88h204.8c4.506 0 4.096 3.686 4.096 8.192s0 12.288-4.096 12.288h-204.8c-4.506 0-4.096-7.782-4.096-12.288s-0.41-8.192 4.096-8.192zM409.6 273.92h204.8c4.506 0 4.096 3.686 4.096 8.192s0 12.288-4.096 12.288h-204.8c-4.506 0-4.096-7.782-4.096-12.288s-0.41-8.192 4.096-8.192zM675.84 560.64v143.36h-327.68v-143.36h-81.92v-286.72h61.44v-81.92h368.64v81.92h61.44v286.72zM368.64 683.52h286.72v-122.88h-286.72zM675.84 212.48h-327.68v184.32h327.68zM675.84 441.856c-22.622 0-40.96 18.338-40.96 40.96s18.338 40.96 40.96 40.96c22.622 0 40.96-18.338 40.96-40.96v0c0-22.622-18.338-40.96-40.96-40.96v0zM700.416 482.816c0-13.573-11.003-24.576-24.576-24.576s-24.576 11.003-24.576 24.576c0 13.573 11.003 24.576 24.576 24.576s24.576-11.003 24.576-24.576z" />
<glyph unicode="&#xe937;" glyph-name="menu_charts" d="M798.72 202.24h-92.16v163.84h-102.4v-163.84h-40.96v430.080h-102.4v-430.080h-40.96v266.24h-102.4v-266.24h-81.92v501.76c0 5.655-4.585 10.24-10.24 10.24s-10.24-4.585-10.24-10.24v0-512c0-5.655 4.585-10.24 10.24-10.24v0h573.44c5.655 0 10.24 4.585 10.24 10.24s-4.585 10.24-10.24 10.24v0z" />
<glyph unicode="&#xe938;" glyph-name="menu_connect" d="M693.453 721.203c-51.181 21.551-110.675 34.073-173.095 34.073-2.939 0-5.871-0.028-8.797-0.083l0.439 0.007c-2.464 0.048-5.369 0.075-8.281 0.075-62.446 0-121.967-12.522-176.19-35.191l3.018 1.119c-37.85-12.725-64.63-47.883-64.63-89.296 0-2.738 0.117-5.449 0.347-8.128l-0.024 0.349v-379.494c0-36.454 9.626-48.947 64.102-71.885 51.279-20.275 110.682-32.030 172.83-32.030 3.104 0 6.201 0.029 9.291 0.088l-0.464-0.007c2.627-0.051 5.724-0.081 8.828-0.081 62.148 0 121.551 11.755 176.106 33.162l-3.276-1.132c54.477 22.938 64.102 35.226 64.102 71.885v379.494c0.205 2.33 0.322 5.041 0.322 7.779 0 41.413-26.78 76.571-63.967 89.102l-0.663 0.194zM737.28 244.634c0-18.227-22.118-38.502-59.392-54.067-46.967-18.58-101.375-29.352-158.3-29.352-2.668 0-5.331 0.024-7.988 0.071l0.399-0.006c-2.715-0.060-5.914-0.094-9.121-0.094-56.348 0-110.23 10.555-159.779 29.795l3.012-1.029c-37.274 16.179-59.392 36.454-59.392 54.682v76.39c12.654-9.151 27.081-17.257 42.405-23.641l1.422-0.525c51.145-20.149 110.382-31.83 172.346-31.83 3.202 0 6.397 0.031 9.584 0.093l-0.477-0.007c2.616-0.051 5.701-0.080 8.792-0.080 62.161 0 121.576 11.754 176.144 33.162l-3.278-1.133c16.669 6.845 31.029 14.884 44.259 24.397l-0.637-0.436v-76.595zM677.888 314.675c-46.537-18.211-100.419-28.766-156.767-28.766-3.207 0-6.407 0.034-9.598 0.102l0.477-0.008c-2.715-0.060-5.914-0.094-9.121-0.094-56.348 0-110.23 10.555-159.779 29.795l3.012-1.029c-37.274 15.565-59.392 35.84-59.392 54.067v0 76.595c12.654-9.151 27.081-17.257 42.405-23.641l1.422-0.525c51.288-20.272 110.7-32.025 172.857-32.025 3.023 0 6.039 0.028 9.048 0.083l-0.452-0.007c2.616-0.051 5.701-0.080 8.792-0.080 62.161 0 121.576 11.754 176.144 33.162l-3.278-1.133c16.666 6.908 31.025 15.013 44.243 24.595l-0.62-0.428v-56.115c-6.581-33.608-28.869-60.897-58.744-74.287l-0.648-0.26zM677.888 438.989c-46.537-18.211-100.419-28.766-156.767-28.766-3.207 0-6.407 0.034-9.598 0.102l0.477-0.008c-2.715-0.060-5.914-0.094-9.121-0.094-56.348 0-110.23 10.555-159.779 29.795l3.012-1.029c-37.274 15.565-59.392 35.84-59.392 54.067v0 80.077c12.686-9.67 27.097-18.234 42.454-25.056l1.373-0.544c51.168-21.551 110.65-34.074 173.056-34.074 2.952 0 5.898 0.028 8.837 0.084l-0.441-0.007c2.487-0.049 5.419-0.076 8.358-0.076 62.42 0 121.914 12.522 176.109 35.192l-3.014-1.118c16.73 7.35 31.143 15.915 44.349 25.982l-0.522-0.382v-80.077c0-18.227-22.118-38.502-59.392-54.272z" />
<glyph unicode="&#xe939;" glyph-name="menu_export" d="M430.080 284.16h163.84v245.76h102.4l-184.32 204.8-184.32-204.8h102.4v-245.76zM808.96 407.040h-102.4c-5.655 0-10.24-4.585-10.24-10.24s4.585-10.24 10.24-10.24v0h92.16v-204.8h-573.44v204.8h92.16c5.655 0 10.24 4.585 10.24 10.24s-4.585 10.24-10.24 10.24v0h-102.4c-5.655 0-10.24-4.585-10.24-10.24v0-225.28c0-5.655 4.585-10.24 10.24-10.24v0h593.92c5.655 0 10.24 4.585 10.24 10.24v0 225.28c0 5.655-4.585 10.24-10.24 10.24v0z" />
<glyph unicode="&#xe93a;" glyph-name="direction_direction_y" d="M802.133 439.467l-102.4 42.667v-34.133h-477.867v-17.067h477.867v-34.133l102.4 42.667z" />
<glyph unicode="&#xe93b;" glyph-name="menu_fields" d="M819.2 765.44h-491.52c-5.734 0-10.24-1.434-10.24-3.277v-167.322c0-1.843 4.506-3.277 10.24-3.277s10.24 1.434 10.24 3.277v150.118h143.36v-160.563c0-1.843 4.506-3.277 10.24-3.277h153.6v-157.082c0-3.686 4.506-6.758 10.24-6.758h153.6v-143.36h-150.323c-1.843 0-3.277-4.506-3.277-10.24s1.434-10.24 3.277-10.24h167.322c1.843 0 3.277 4.506 3.277 10.24v491.52c0 0.001 0 0.001 0 0.002 0 5.583-4.469 10.123-10.024 10.238h-0.011zM808.96 601.6h-143.36v143.36h143.36zM501.76 601.6v143.36h143.36v-143.36zM665.6 437.76v143.36h143.36v-143.36zM556.442 431.616l29.696 40.96-48.742 48.742-40.96-29.696c-12.675 7.47-27.336 13.579-42.85 17.56l-1.182 0.257-8.397 50.381h-68.813l-8.397-50.381c-16.408-4.388-30.778-10.553-43.991-18.454l0.778 0.431-40.96 29.696-48.742-48.742 29.696-40.96c-7.374-12.316-13.468-26.55-17.543-41.613l-0.274-1.19-50.381-8.397v-68.813l50.381-8.397c4.319-16.402 10.417-30.777 18.251-44.003l-0.433 0.791-29.696-40.96 48.742-48.742 40.96 29.696c12.436-7.512 26.811-13.68 42.042-17.756l1.171-0.267 8.397-50.381h69.018l8.192 50.381c16.402 4.345 30.777 10.513 43.971 18.445l-0.758-0.423 40.96-29.696 48.742 48.742-29.696 40.96c7.383 12.375 13.479 26.679 17.545 41.815l0.273 1.193 50.381 8.397v68.813l-50.381 8.602c-4.053 16.303-9.884 30.628-17.437 43.841l0.439-0.833zM409.6 273.92c-39.588 0-71.68 32.092-71.68 71.68s32.092 71.68 71.68 71.68c39.588 0 71.68-32.092 71.68-71.68v0c-0.116-39.541-32.139-71.564-71.669-71.68h-0.011z" />
<glyph unicode="&#xe93c;" glyph-name="menu_format" d="M645.12 171.52v122.88c0 11.264-4.506 20.48-10.24 20.48s-10.24-9.216-10.24-20.48v-122.88h-389.12v389.12h133.12c5.655 0 10.24 4.585 10.24 10.24s-4.585 10.24-10.24 10.24v0h-143.36c-5.655 0-10.24-4.585-10.24-10.24v0-409.6c0-5.655 4.585-10.24 10.24-10.24v0h409.6c5.655 0 10.24 4.585 10.24 10.24v0c0.097 0.523 0.152 1.126 0.152 1.741s-0.055 1.217-0.161 1.802l0.009-0.061c0.095 1.013 0.149 2.19 0.149 3.379s-0.054 2.367-0.16 3.529l0.011-0.149zM372.531 429.363l-34.611-155.443 155.443 34.611 237.773 237.773-120.832 120.832zM500.736 417.28l-19.251 19.251 103.424 103.424 19.251-19.251zM722.534 744.96c-0.061 0-0.133 0-0.204 0-19.461 0-37.413-6.463-51.826-17.36l0.216 0.157-34.611-33.997 121.651-121.651 34.611 34.611c10.773 14.256 17.255 32.278 17.255 51.815 0 47.678-38.607 86.338-86.264 86.425h-0.008z" />
<glyph unicode="&#xe93d;" glyph-name="menu_fullscreen_close" d="M430.080 529.92h163.84v-163.84h-163.84v163.84zM737.28 334.746c0 5.655-4.585 10.24-10.24 10.24v0h-102.4c-0.256 0.023-0.555 0.037-0.856 0.037-5.542 0-10.035-4.493-10.035-10.035 0-0.301 0.013-0.599 0.039-0.894l-0.003 0.038v-102.4c0-5.655 4.585-10.24 10.24-10.24s10.24 4.585 10.24 10.24v0 78.234l125.338-125.338c1.861-1.861 4.431-3.011 7.27-3.011 5.679 0 10.282 4.603 10.282 10.282 0 2.839-1.151 5.41-3.011 7.27v0l-124.109 125.952h77.619c5.186 0.312 9.314 4.44 9.624 9.597l0.001 0.028zM398.336 345.6h-102.4c-5.655 0-10.24-4.585-10.24-10.24s4.585-10.24 10.24-10.24v0h77.619l-125.338-125.338c-1.861-1.861-3.011-4.431-3.011-7.27 0-5.679 4.603-10.282 10.282-10.282 2.839 0 5.41 1.151 7.27 3.011v0l126.362 124.723v-77.619c0-5.655 4.585-10.24 10.24-10.24s10.24 4.585 10.24 10.24v0 102.4c0.023 0.256 0.037 0.555 0.037 0.856 0 5.542-4.493 10.035-10.035 10.035-0.301 0-0.599-0.013-0.894-0.039l0.038 0.003zM625.869 550.4h102.4c5.655 0 10.24 4.585 10.24 10.24s-4.585 10.24-10.24 10.24v0h-78.234l125.133 125.338c1.861 1.861 3.011 4.431 3.011 7.27 0 5.679-4.603 10.282-10.282 10.282-2.839 0-5.41-1.151-7.27-3.011v0l-125.747-124.723v77.619c0 5.655-4.585 10.24-10.24 10.24s-10.24-4.585-10.24-10.24v0-102.4c-0.023-0.256-0.037-0.555-0.037-0.856 0-5.542 4.493-10.035 10.035-10.035 0.301 0 0.599 0.013 0.894 0.039l-0.038-0.003zM286.72 561.254c0-5.655 4.585-10.24 10.24-10.24v0h102.4c0.256-0.023 0.555-0.037 0.856-0.037 5.542 0 10.035 4.493 10.035 10.035 0 0.301-0.013 0.599-0.039 0.894l0.003-0.038v102.4c0 5.655-4.585 10.24-10.24 10.24s-10.24-4.585-10.24-10.24v0-77.619l-125.133 125.338c-1.861 1.861-4.431 3.011-7.27 3.011-5.679 0-10.282-4.603-10.282-10.282 0-2.839 1.151-5.41 3.011-7.27v0l123.699-126.566h-77.414c-5.186-0.312-9.314-4.44-9.624-9.597l-0.001-0.028z" />
<glyph unicode="&#xe93e;" glyph-name="menu_fullscreen_open" d="M768 550.4c5.655 0 10.24 4.585 10.24 10.24v0 143.36c0.023 0.256 0.037 0.555 0.037 0.856 0 5.542-4.493 10.035-10.035 10.035-0.301 0-0.599-0.013-0.894-0.039l0.038 0.003h-143.36c-5.655 0-10.24-4.585-10.24-10.24s4.585-10.24 10.24-10.24v0h118.579l-143.36-143.36h-175.104l-143.36 143.36h118.579c5.655 0 10.24 4.585 10.24 10.24s-4.585 10.24-10.24 10.24v0h-143.36c-0.256 0.023-0.555 0.037-0.856 0.037-5.542 0-10.035-4.493-10.035-10.035 0-0.301 0.013-0.599 0.039-0.894l-0.003 0.038v-143.36c0-5.655 4.585-10.24 10.24-10.24s10.24 4.585 10.24 10.24v0 118.579l143.36-143.36v-175.514l-143.36-143.36v118.374c0 5.655-4.585 10.24-10.24 10.24s-10.24-4.585-10.24-10.24v0-143.36c-0.023-0.256-0.037-0.555-0.037-0.856 0-5.542 4.493-10.035 10.035-10.035 0.301 0 0.599 0.013 0.894 0.039l-0.038-0.003h143.36c5.655 0 10.24 4.585 10.24 10.24s-4.585 10.24-10.24 10.24v0h-118.579l143.36 143.36h175.514l143.36-143.36h-118.784c-5.655 0-10.24-4.585-10.24-10.24s4.585-10.24 10.24-10.24v0h143.36c0.256-0.023 0.555-0.037 0.856-0.037 5.542 0 10.035 4.493 10.035 10.035 0 0.301-0.013 0.599-0.039 0.894l0.003-0.038v143.36c0 5.655-4.585 10.24-10.24 10.24s-10.24-4.585-10.24-10.24v0-118.579l-143.36 143.36v176.128l143.36 143.36v-118.989c0-0.001 0-0.001 0-0.002 0-5.583 4.469-10.123 10.024-10.238h0.011z" />
<glyph unicode="&#xe93f;" glyph-name="menu_grid" d="M757.76 704c-0.493 0.086-1.060 0.135-1.638 0.135s-1.146-0.049-1.698-0.143l0.059 0.008c-0.92 0.085-1.991 0.133-3.072 0.133s-2.152-0.048-3.208-0.143l0.136 0.010h-472.678c-0.92 0.085-1.991 0.133-3.072 0.133s-2.152-0.048-3.208-0.143l0.136 0.010c-0.493 0.086-1.060 0.135-1.638 0.135s-1.146-0.049-1.698-0.143l0.059 0.008c-5.655 0-10.24-4.585-10.24-10.24v0-491.52c0-5.655 4.585-10.24 10.24-10.24v0c0.493-0.086 1.060-0.135 1.638-0.135s1.146 0.049 1.698 0.143l-0.059-0.008c0.92-0.085 1.991-0.133 3.072-0.133s2.152 0.048 3.208 0.143l-0.136-0.010h472.678c0.92-0.085 1.991-0.133 3.072-0.133s2.152 0.048 3.208 0.143l-0.136-0.010c0.493-0.086 1.060-0.135 1.638-0.135s1.146 0.049 1.698 0.143l-0.059-0.008c5.655 0 10.24 4.585 10.24 10.24v0 491.52c0 5.655-4.585 10.24-10.24 10.24v0zM419.84 519.68v-143.36h-143.36v143.36zM440.32 519.68h143.36v-143.36h-143.36zM604.16 519.68h143.36v-143.36h-143.36zM276.48 355.84h143.36v-143.36h-143.36zM440.32 355.84h143.36v-143.36h-143.36zM604.16 355.84h143.36v-143.36h-143.36z" />
<glyph unicode="&#xe940;" glyph-name="menu_open" d="M847.258 477.901c-2.253 2.458 6.144 11.264 2.662 11.264h-61.44v163.635c10.445 11.059-7.168 46.285-40.96 40.96h-307.2l-40.96 40.96c-2.867 4.915-14.746 0-20.48 0h-122.88c-13.107 6.554-23.552-27.238-20.48-40.96v-204.8h-61.44c-3.482 0 4.915-8.806 2.662-11.264-1.713-2.095-2.75-4.8-2.75-7.748 0-0.517 0.032-1.027 0.094-1.528l-0.006 0.060 65.946-296.755c0-5.734 10.24-9.83 15.974-9.83h512c5.734 0 20.48-5.734 20.48 0l61.44 307.2c0.064 0.448 0.101 0.966 0.101 1.493 0 2.81-1.048 5.375-2.774 7.325l0.010-0.012zM256 714.24h122.88l38.093-35.635c2.867-4.915 17.818-5.325 23.347-5.325h327.68v-184.32h-81.92v102.4h-348.16v-102.4h-81.92zM665.6 488.96h-307.2v81.92h307.2z" />
<glyph unicode="&#xe941;" glyph-name="menu_save" d="M782.541 617.779l-100.557 100.762c-3.68 3.651-8.741 5.915-14.331 5.939h-15.365c-3.733 0-6.758-3.026-6.758-6.758v-163.84c0-11.311-9.169-20.48-20.48-20.48v0h-226.304c-11.311 0-20.48 9.169-20.48 20.48v0 163.84c0 3.733-3.026 6.758-6.758 6.758v0h-115.712c-11.311 0-20.48-9.169-20.48-20.48v0-512c0-11.311 9.169-20.48 20.48-20.48v0h512c11.311 0 20.48 9.169 20.48 20.48v0 411.648c-0.023 5.493-2.204 10.473-5.74 14.137l0.006-0.006zM668.058 281.498c0-11.311-9.169-20.48-20.48-20.48v0h-271.565c-11.311 0-20.48 9.169-20.48 20.48v0 158.925c0 11.311 9.169 20.48 20.48 20.48v0h271.974c11.311 0 20.48-9.169 20.48-20.48v0zM425.779 588.288h172.442c3.733 0 6.758 3.026 6.758 6.758v0 122.88c0 3.733-3.026 6.758-6.758 6.758v0h-172.442c-3.733 0-6.758-3.026-6.758-6.758v0-122.88c0-3.733 3.026-6.758 6.758-6.758v0zM532.48 674.509c0 11.311 9.169 20.48 20.48 20.48s20.48-9.169 20.48-20.48v0-36.25c0-11.311-9.169-20.48-20.48-20.48s-20.48 9.169-20.48 20.48v0zM579.379 381.030h-134.758c-11.311 0-20.48-9.169-20.48-20.48s9.169-20.48 20.48-20.48v0h134.758c11.311 0 20.48 9.169 20.48 20.48s-9.169 20.48-20.48 20.48v0z" />
<glyph unicode="&#xe942;" glyph-name="dd_connect_csv" d="M368.64 263.68h122.88v60.826l-122.88 0.41v-61.235zM488.653 529.51h-37.683l-21.094-50.586-22.118 50.586h-36.659l38.093-79.872-40.55-83.763h37.478l23.552 51.2 23.757-51.2h38.298l-41.779 80.282 38.707 83.354zM532.48 427.52h122.88v-61.44h-122.88v61.44zM532.48 469.094l122.88-0.41v61.235h-122.88v-60.826zM532.48 263.68h122.88v61.85l-122.88-0.41v-61.44zM731.955 597.914l-114.893 129.638c-3.779 4.4-9.348 7.169-15.564 7.169-0.072 0-0.144 0-0.216-0.001h-290.191c-0.061 0.001-0.133 0.001-0.205 0.001-13.347 0-24.166-10.82-24.166-24.166 0 0 0-0.001 0-0.001v0-525.107c0 0 0-0.001 0-0.001 0-13.347 10.82-24.166 24.166-24.166 0.072 0 0.144 0 0.216 0.001h401.807c0.061-0.001 0.133-0.001 0.205-0.001 13.347 0 24.166 10.82 24.166 24.166 0 0 0 0.001 0 0.001v0 398.746c-0.014 5.293-2.034 10.111-5.339 13.738l0.015-0.016zM716.8 181.76h-409.6v532.48h286.72v-122.88c3.146-9.781 10.699-17.334 20.258-20.418l0.222-0.062h102.4z" />
<glyph unicode="&#xe943;" glyph-name="dd_connect_json" d="M471.040 284.16c-11.264 0-20.48-11.264-20.48 0v40.96c-0.143 24.502-11.020 46.436-28.163 61.356l-0.099 0.084c17.242 15.004 28.12 36.938 28.262 61.415v40.985c0 11.264 9.216 0 20.48 0 11.311 0 20.48 9.169 20.48 20.48s-9.169 20.48-20.48 20.48v0c-33.792 0-61.44-7.168-61.44-40.96v-40.96c0-22.622-18.338-40.96-40.96-40.96v0c-11.311 0-20.48-9.169-20.48-20.48s9.169-20.48 20.48-20.48v0c22.622 0 40.96-18.338 40.96-40.96v0-40.96c0-33.792 27.648-40.96 61.44-40.96 11.311 0 20.48 9.169 20.48 20.48s-9.169 20.48-20.48 20.48v0zM532.48 366.080c0 11.311-9.169 20.48-20.48 20.48s-20.48-9.169-20.48-20.48v0-40.96c0-11.311 9.169-20.48 20.48-20.48s20.48 9.169 20.48 20.48v0zM614.4 488.96c0 33.792-27.648 40.96-61.44 40.96-11.311 0-20.48-9.169-20.48-20.48s9.169-20.48 20.48-20.48v0c11.264 0 20.48 11.264 20.48 0v-40.96c0.143-24.502 11.020-46.436 28.163-61.356l0.099-0.084c-17.242-15.004-28.12-36.938-28.262-61.415v-40.985c0-11.264-9.216 0-20.48 0-11.311 0-20.48-9.169-20.48-20.48s9.169-20.48 20.48-20.48v0c33.792 0 61.44 7.168 61.44 40.96v40.96c0 22.622 18.338 40.96 40.96 40.96v0c11.311 0 20.48 9.169 20.48 20.48s-9.169 20.48-20.48 20.48v0c-22.622 0-40.96 18.338-40.96 40.96v0zM532.48 448c0-11.311-9.169-20.48-20.48-20.48s-20.48 9.169-20.48 20.48c0 11.311 9.169 20.48 20.48 20.48s20.48-9.169 20.48-20.48zM731.955 597.914l-114.893 129.638c-3.779 4.4-9.348 7.169-15.564 7.169-0.072 0-0.144 0-0.216-0.001h-290.191c-0.061 0.001-0.133 0.001-0.205 0.001-13.347 0-24.166-10.82-24.166-24.166 0 0 0-0.001 0-0.001v0-525.107c0 0 0-0.001 0-0.001 0-13.347 10.82-24.166 24.166-24.166 0.072 0 0.144 0 0.216 0.001h401.807c0.061-0.001 0.133-0.001 0.205-0.001 13.347 0 24.166 10.82 24.166 24.166 0 0 0 0.001 0 0.001v0 398.746c-0.014 5.293-2.034 10.111-5.339 13.738l0.015-0.016zM716.8 181.76h-409.6v532.48h286.72v-122.88c3.146-9.781 10.699-17.334 20.258-20.418l0.222-0.062h102.4z" />
<glyph unicode="&#xe944;" glyph-name="dd_export_bar" d="M798.72 171.52h-92.16v163.84h-102.4v-163.84h-40.96v430.080h-102.4v-430.080h-40.96v266.24h-102.4v-266.24h-81.92v563.2c0 5.655-4.585 10.24-10.24 10.24s-10.24-4.585-10.24-10.24v0-573.44c0-5.655 4.585-10.24 10.24-10.24v0h573.44c5.655 0 10.24 4.585 10.24 10.24s-4.585 10.24-10.24 10.24v0z" />
<glyph unicode="&#xe945;" glyph-name="dd_export_bar_hor" d="M798.72 171.52h-563.2v81.92h266.24v102.4h-266.24v40.96h430.080v102.4h-430.080v40.96h163.84v102.4h-163.84v92.16c0 5.655-4.585 10.24-10.24 10.24s-10.24-4.585-10.24-10.24v0-573.44c0-5.655 4.585-10.24 10.24-10.24v0h573.44c5.655 0 10.24 4.585 10.24 10.24s-4.585 10.24-10.24 10.24v0z" />
<glyph unicode="&#xe946;" glyph-name="notif_arrow" d="M765.44 628.992l-72.448 72.448-180.992-180.992-180.992 180.992-72.448-72.448 180.992-180.992-180.992-180.992 72.448-72.448 180.992 180.992 180.992-180.992 72.448 72.448-180.992 180.992 180.992 180.992z" />
<glyph unicode="&#xe947;" glyph-name="notif_confirm" d="M756.736 704l-323.584-331.776-165.888 169.984-88.064-90.112 253.952-260.096 411.648 421.888-88.064 90.112z" />
<glyph unicode="&#xe948;" glyph-name="notif_info" d="M588.8 704c0-42.415-34.385-76.8-76.8-76.8s-76.8 34.385-76.8 76.8c0 42.415 34.385 76.8 76.8 76.8s76.8-34.385 76.8-76.8zM460.8 550.4h102.4v-435.2h-102.4v435.2z" />
<glyph unicode="&#xe949;" glyph-name="notif_warning" d="M563.2 179.2c0-28.277-22.923-51.2-51.2-51.2s-51.2 22.923-51.2 51.2c0 28.277 22.923 51.2 51.2 51.2s51.2-22.923 51.2-51.2zM435.2 768l25.6-435.2h102.4l25.6 435.2h-153.6z" />
<glyph unicode="&#xe94a;" glyph-name="kpi" d="M618.667 725.333c0-58.923-47.765-106.667-106.667-106.667s-106.667 47.744-106.667 106.667 47.765 106.667 106.667 106.667 106.667-47.744 106.667-106.667zM945.707 551.253h-156.373v135.040l156.373 138.667h-156.373v135.040h-554.667v-135.040h-152.96l152.96-138.667v-135.040h-152.96l152.96-138.667v-135.253h-154.667l152.96-138.667h1.707v-202.667h554.667v204.16l154.667 137.173h-154.667v135.253l156.373 138.667zM704 3.669h-387.563v888.875h387.563v-888.875zM618.667 448c0-58.923-47.765-106.667-106.667-106.667s-106.667 47.744-106.667 106.667 47.765 106.667 106.667 106.667 106.667-47.744 106.667-106.667zM618.667 170.667c0-58.923-47.765-106.667-106.667-106.667s-106.667 47.744-106.667 106.667 47.765 106.667 106.667 106.667 106.667-47.744 106.667-106.667z" />
<glyph unicode="&#xe94b;" glyph-name="arrow_fields_close" d="M196.923 330.24l188.652-197.317 260.332 259.938 181.169-181.169v551.385h-551.385l177.231-177.231-256-255.606z" />
<glyph unicode="&#xe94c;" glyph-name="arrow_fields_open" d="M827.077 565.76l-189.046 197.317-259.938-259.938-181.169 181.169v-551.385h551.385l-177.231 177.231 256 255.606z" />
<glyph unicode="&#xe94d;" glyph-name="dd_connect_olap" d="M768 593.818c-1.009 2.702-2.47 5.019-4.31 6.974l0.010-0.010h-1.434l-243.507 132.71c-1.433 0.727-3.124 1.152-4.915 1.152s-3.482-0.426-4.979-1.181l0.063 0.029-246.989-131.686c-3.426-1.81-5.724-5.346-5.734-9.419v-328.705l245.76-102.4 7.168 1.024c1.409-0.682 3.064-1.080 4.813-1.080s3.404 0.398 4.88 1.109l-0.067-0.029 3.686-1.024 245.76 102.4v330.138zM612.557 659.354l-98.714-49.152-98.714 49.152 98.714 49.152zM378.88 386.56l-102.4 40.96v143.36l102.4-61.44zM282.829 593.203l98.304 49.152 100.147-50.995-102.4-40.96zM501.76 181.76l-102.4 40.96v122.88l102.4-40.96zM501.76 325.12l-102.4 40.96v122.88l102.4-40.96zM513.843 477.901l-114.483 52.019 122.88 40.96 102.4-40.96zM624.64 222.72l-102.4-40.96v122.88l102.4 40.96zM624.64 366.080l-102.4-40.96v122.88l102.4 40.96zM747.52 284.16l-102.4-40.96v122.88l102.4 40.96zM747.52 427.52l-102.4-40.96v122.88l102.4 40.96z" />
<glyph unicode="&#xe94e;" glyph-name="preloader" d="M512.235 21.333c-141.739 0-274.133 71.851-352.768 187.477v-174.869h-34.155v256h256.149v-34.133h-211.008c69.077-122.56 200.384-200.384 341.781-200.384 211.221 0 387.2 171.819 392.277 382.997l34.155-0.768c-5.547-229.589-196.843-416.32-426.432-416.32zM85.675 441.088l17.067 0.256-17.173 1.92c-0.149 1.557-0.235 3.115-0.235 4.736 0 235.264 191.531 426.667 426.901 426.667 146.688 0 281.195-74.923 358.976-195.541v170.987h34.155v-256.021h-256.171v34.176h212.053c-67.179 129.835-201.408 212.309-349.013 212.309-216.555 0-392.747-176.128-392.747-392.555l0.32-6.421-34.133-0.512z" />
<glyph unicode="&#xe94f;" glyph-name="edit" d="M166.605 357.038c-18.537-18.483-18.52-48.512 0.039-66.974l185.101-184.135c18.44-18.345 48.235-18.337 66.67 0.008l571.934 569.194c18.566 18.478 18.558 48.531-0.008 67.005l-185.641 184.669c-18.452 18.355-48.271 18.338-66.702-0.039l-571.393-569.728zM0.635-29.366c-0.887-4.13-0.844-8.404 0.127-12.516s2.846-7.96 5.49-11.268c2.644-3.309 5.993-5.997 9.806-7.872s7.997-2.89 12.251-2.973h3.796c1.874 0 3.742 0.223 5.564 0.664l237.239 57.473c17.941 4.346 24.194 26.665 11.122 39.7l-191.78 191.233c-13.196 13.159-35.72 6.577-39.756-11.616l-53.861-242.824z" />
<glyph unicode="&#xe950;" glyph-name="kpi_status_good" d="M512 960c-282.773 0-512-229.227-512-512s229.227-512 512-512 512 229.227 512 512-229.227 512-512 512z" />
<glyph unicode="&#xe951;" glyph-name="kpi_status_bad" d="M512 960c-282.773 0-512-229.227-512-512s229.227-512 512-512 512 229.227 512 512-229.227 512-512 512zM512 64c-212.075 0-384 171.925-384 384s171.925 384 384 384c212.075 0 384-171.925 384-384s-171.925-384-384-384z" />
<glyph unicode="&#xe952;" glyph-name="kpi_status_ok" d="M512 960c-282.773 0-512-229.227-512-512s229.227-512 512-512 512 229.227 512 512-229.227 512-512 512zM128 448c0 212.075 171.925 384 384 384v-768c-212.075 0-384 171.925-384 384z" />
<glyph unicode="&#xe953;" glyph-name="kpi_status_rising" d="M512 960c-282.667 0-512-229.333-512-512s229.333-512 512-512 512 229.333 512 512-229.333 512-512 512zM128 448c0 212.053 171.947 384 384 384v-384h-384z" />
<glyph unicode="&#xe954;" glyph-name="kpi_status_risk" d="M512 960c-282.667 0-512-229.333-512-512s229.333-512 512-512 512 229.333 512 512-229.333 512-512 512zM512 64c-212.053 0-384 171.947-384 384s171.947 384 384 384v-384h384c0-212.053-171.947-384-384-384z" />
<glyph unicode="&#xea0a;" glyph-name="plus" d="M992 576h-352v352c0 17.672-14.328 32-32 32h-192c-17.672 0-32-14.328-32-32v-352h-352c-17.672 0-32-14.328-32-32v-192c0-17.672 14.328-32 32-32h352v-352c0-17.672 14.328-32 32-32h192c17.672 0 32 14.328 32 32v352h352c17.672 0 32 14.328 32 32v192c0 17.672-14.328 32-32 32z" />
<glyph unicode="&#xea0b;" glyph-name="minus" d="M0 544v-192c0-17.672 14.328-32 32-32h960c17.672 0 32 14.328 32 32v192c0 17.672-14.328 32-32 32h-960c-17.672 0-32-14.328-32-32z" />
<glyph unicode="&#xea0c;" glyph-name="info" d="M448 656c0 26.4 21.6 48 48 48h32c26.4 0 48-21.6 48-48v-32c0-26.4-21.6-48-48-48h-32c-26.4 0-48 21.6-48 48v32zM640 192h-256v64h64v192h-64v64h192v-256h64zM512 960c-282.77 0-512-229.23-512-512s229.23-512 512-512 512 229.23 512 512-229.23 512-512 512zM512 32c-229.75 0-416 186.25-416 416s186.25 416 416 416 416-186.25 416-416-186.25-416-416-416z" />
<glyph unicode="&#xea3a;" glyph-name="arrow-up2" d="M877.254 557.254l-320 320c-24.992 24.994-65.514 24.994-90.508 0l-320-320c-24.994-24.994-24.994-65.516 0-90.51 24.994-24.996 65.516-24.996 90.51 0l210.744 210.746v-613.49c0-35.346 28.654-64 64-64s64 28.654 64 64v613.49l210.746-210.746c12.496-12.496 28.876-18.744 45.254-18.744s32.758 6.248 45.254 18.746c24.994 24.994 24.994 65.514 0 90.508z" />
<glyph unicode="&#xea3b;" glyph-name="arrow-up-right2" d="M237.254 82.746l530.746 530.744v-229.49c0-35.346 28.654-64 64-64s64 28.654 64 64v384c0 25.884-15.594 49.222-39.508 59.126-7.924 3.284-16.242 4.84-24.492 4.838v0.036h-384c-35.346 0-64-28.654-64-64 0-35.348 28.654-64 64-64h229.49l-530.744-530.746c-12.498-12.496-18.746-28.876-18.746-45.254s6.248-32.758 18.746-45.254c24.992-24.994 65.516-24.994 90.508 0z" />
<glyph unicode="&#xea3c;" glyph-name="arrow-right2" d="M621.254 82.746l320 320c24.994 24.992 24.994 65.516 0 90.51l-320 320c-24.994 24.992-65.516 24.992-90.51 0-24.994-24.994-24.994-65.516 0-90.51l210.746-210.746h-613.49c-35.346 0-64-28.654-64-64s28.654-64 64-64h613.49l-210.746-210.746c-12.496-12.496-18.744-28.876-18.744-45.254s6.248-32.758 18.744-45.254c24.994-24.994 65.516-24.994 90.51 0z" />
<glyph unicode="&#xea3d;" glyph-name="arrow-down-right2" d="M146.746 722.746l530.742-530.746h-229.488c-35.346 0-64-28.654-64-64s28.654-64 64-64h384c25.884 0 49.222 15.594 59.126 39.508 3.284 7.924 4.84 16.242 4.838 24.492h0.036v384c0 35.346-28.654 64-64 64-35.348 0-64-28.654-64-64v-229.49l-530.746 530.744c-12.496 12.498-28.874 18.746-45.254 18.746s-32.758-6.248-45.254-18.746c-24.994-24.992-24.994-65.516 0-90.508z" />
<glyph unicode="&#xea3e;" glyph-name="arrow-down2" d="M877.254 338.746l-320-320c-24.992-24.994-65.514-24.994-90.508 0l-320 320c-24.994 24.994-24.994 65.516 0 90.51 24.994 24.996 65.516 24.996 90.51 0l210.744-210.746v613.49c0 35.346 28.654 64 64 64s64-28.654 64-64v-613.49l210.746 210.746c12.496 12.496 28.876 18.744 45.254 18.744s32.758-6.248 45.254-18.746c24.994-24.994 24.994-65.514 0-90.508z" />
</font>
</defs>
</svg>
